<?xml version="1.0" encoding="utf-8"?>
<!-- Generator: Adobe Illustrator 28.2.0, SVG Export Plug-In . SVG Version: 6.00 Build 0)  -->
<svg version="1.1" id="Camada_1" xmlns="http://www.w3.org/2000/svg" xmlns:xlink="http://www.w3.org/1999/xlink" x="0px" y="0px"
	 viewBox="0 0 1417.32 412.92" style="enable-background:new 0 0 1417.32 412.92;" xml:space="preserve">
<style type="text/css">
	.st0{fill:url(#SVGID_1_);}
	.st1{fill:url(#SVGID_00000052100638736541646130000014298219630419609244_);}
	.st2{fill:url(#SVGID_00000057133765687791991390000008932742659202205350_);}
	.st3{fill:url(#SVGID_00000153692054761932869710000005791636716239601053_);}
	.st4{fill:url(#SVGID_00000151545305479844928960000002691733749192692108_);}
	.st5{fill:url(#SVGID_00000073680644254441908580000017048456189346288059_);}
	.st6{fill:url(#SVGID_00000178912077000807671000000004244455514679999628_);}
	.st7{fill:url(#SVGID_00000000918420464911731510000011406486958890859706_);}
	.st8{fill:url(#SVGID_00000013891213729507039950000000493207008265769857_);}
	.st9{fill:url(#SVGID_00000006674721617865235350000013203228888187397505_);}
	.st10{fill:url(#SVGID_00000070799431893074970220000013464541336321126055_);}
	.st11{fill:url(#SVGID_00000085960143574787491800000010336310633328608441_);}
	.st12{fill:url(#SVGID_00000044149839548748644710000002314315388122220985_);}
	.st13{fill:url(#SVGID_00000170274119593553668540000017268496250823143332_);}
	.st14{fill:url(#SVGID_00000121970664040673001310000016462292193553153464_);}
	.st15{fill:url(#SVGID_00000030465115314831680550000008037023116372731036_);}
	.st16{fill:url(#SVGID_00000127741667140065133480000014402722533442361743_);}
	.st17{fill:url(#SVGID_00000115505076548107660250000015476729388731853214_);}
	.st18{fill:url(#SVGID_00000182514011844253517110000001593394080453755810_);}
	.st19{fill:url(#SVGID_00000002349090024523116920000000585987647887029690_);}
	.st20{fill:url(#SVGID_00000002384712999449929710000002736610616174180524_);}
	.st21{fill:url(#SVGID_00000126321455222686330980000013508086185678242689_);}
	.st22{fill:url(#SVGID_00000115490264257507494450000013498498076191831959_);}
	.st23{fill:url(#SVGID_00000088834356581225538480000015919356188017406131_);}
	.st24{fill:url(#SVGID_00000111912680053620009960000014748315866002314666_);}
</style>
<g>
	<g>
		<linearGradient id="SVGID_1_" gradientUnits="userSpaceOnUse" x1="435.8162" y1="15.2412" x2="435.8891" y2="15.2412">
			<stop  offset="0" style="stop-color:#7A501E"/>
			<stop  offset="0.3529" style="stop-color:#A3702A"/>
			<stop  offset="0.5894" style="stop-color:#C49543"/>
			<stop  offset="0.648" style="stop-color:#CC9F49"/>
			<stop  offset="0.8045" style="stop-color:#8C5D21"/>
			<stop  offset="0.9134" style="stop-color:#7A501E"/>
		</linearGradient>
		<path class="st0" d="M435.85,15.2c-0.01,0.03-0.02,0.05-0.03,0.08c0.02-0.01,0.05-0.03,0.07-0.04L435.85,15.2z"/>
		
			<linearGradient id="SVGID_00000056404947346235273040000015992956204094625185_" gradientUnits="userSpaceOnUse" x1="293.8694" y1="199.2079" x2="525.7192" y2="199.2079">
			<stop  offset="0" style="stop-color:#7A501E"/>
			<stop  offset="0.3529" style="stop-color:#A3702A"/>
			<stop  offset="0.5894" style="stop-color:#C49543"/>
			<stop  offset="0.648" style="stop-color:#CC9F49"/>
			<stop  offset="0.8045" style="stop-color:#8C5D21"/>
			<stop  offset="0.9134" style="stop-color:#7A501E"/>
		</linearGradient>
		<path style="fill:url(#SVGID_00000056404947346235273040000015992956204094625185_);" d="M506.1,126.42
			c1.97-2.51,4.8-3.6,8.19-6.7c-3.74,1.68-8.17,3.35-11.65,4.91c0.38-6.37,4.29-9.79,7.97-13.85c-6.11,1.73-8.38,6.85-10.65,12
			c-0.6,1.37-0.55,3.17-2.66,3.56c-4.23,0.77-8.41,2.23-12.66,2.47c-17.36,1-34.12-2.01-50.3-8.37c-0.61-0.24-6.52-2.49-9.81-4.73
			c36.53,0.91,61.15-10.43,61.15-10.43l-0.01,0c3.97-1.66,7.66-4.01,11.26-6.47c4.75-3.24,8.34-7.25,13.75-9.02
			c3.58-1.17,7.01-2.78,10.04-5.02c2.66-1.96,4.94-4.29,4.99-6.52c0,0-8.49,7.61-14.18,7.71c0.35-1.84,4.13-7.83,4.03-7.93
			c-2.27,0.84-5.58,6.81-8.3,7.33c-1.63-5.31,0.85-11.91,4.77-15.93c0,0-7.45,4.74-8.18,12.17c-0.53,4.95-0.04,7.93-0.04,7.93
			s-5.91,5.25-10.21,7.84c-1.05,0.63-2.08,1.31-3.12,1.98c-3.12,2.02-6.5,3.55-9.86,5.13c-28.65,8.58-48.93,8.68-57.93,8.09
			c6.85-0.95,17.65-5.26,19.49-6.09c0.26-0.12,0.55-0.25,0.87-0.4c12.98-6.03,24.16-14.55,34.11-24.74c1.67-1.71,3.18-2.87,5.85-2.9
			c2.99-0.03,9.77-3.98,11.32-7.09c-3.23,1.53-8.01,4.72-10.28,3.48c-0.1-1.39,4.2-8.32,4.2-8.32s-6.32,5.88-8.07,5.46
			c-1.35-4.79,1.61-9.4,3.27-12.31c-4.24,3.38-5.96,8-5.51,13.2c0.24,2.7-0.64,4.19-2.48,5.82c-11.17,9.91-22.91,18.98-36.49,25.47
			c-0.46,0.22-12.01,4.39-17.99,6.57c5.22-4.45,11.85-10.73,12.44-11.25c2.25-2,4.71-3.8,6.79-5.96
			c12.19-12.64,22.53-26.62,29.9-42.63c1.13-2.46,2.67-3.73,5.14-4.63c3.88-1.42,9.83-4.85,11-9.68c-2.65,2.61-6.94,6-11.21,5.74
			c0.99-3.85,3.27-10.92,3.27-10.92c-1.86,1.32-4.12,7.72-6.91,9.51c-2.45-3.33-2.05-9.24-2.36-13.6
			c-2.27,4.7-1.84,11.24-0.01,15.09c0.85,1.78,0.84,3.11-0.18,4.8c-6.93,11.51-14.42,22.62-22.86,33.09
			c-4.69,5.82-9.61,11.43-14.87,16.74c-0.53,0.53-9.61,8.29-14.13,13.51c0.68-3.73,1.61-9.38,3.3-15.53
			c4.37-12.44,8.64-21.95,15.14-33.43c1.7-3,3.67-5.56,8.05-6.14c5.04-0.67,9.3-3.85,11.59-8.84c0,0-7.02,5.31-12,4.88
			c1.37-3.17,3.43-5.67,4.72-8.81c-2.45,2.64-6.19,6.35-7.14,6.07c-1.02-0.31-1.19-1.46-1.38-2.45c-0.57-2.93,0.95-8.44,0.9-8.5
			c-2.84,3.06-4.02,6.61-2.66,10.71c0.93,2.8,0.56,5.09-1.4,7.5c-4.09,5.05-7.1,10.84-10.09,16.59
			c-4.72,9.08-7.75,18.79-10.12,28.71c-0.53,2.43-0.87,4.52-1.06,6.31c-0.4-8.33-2.02-24.33-2.2-28.9
			c-0.57-14.3,1.93-27.53,4.31-41.58c0.83-4.9,2.44-9.12,8.15-11.31c4.65-1.77,8.95-5.17,10.69-10.52
			c-4.9,2.61-8.66,7.32-14.76,8.31c-0.13-4.14,2.55-7.36,2.67-12.23c-2.69,5.31-4.88,9.63-7.21,14.23
			c-3.45-5.76-3.71-11.74-3.8-17.78c-2.46,6.59-1.91,13,1.17,19.16c0.99,1.97,1.08,3.68,0.44,5.73c-2.23,7.18-3.23,14.9-3.99,22.49
			c-1.34,13.32-1.44,25.93,0.57,39.07c0.11,0.73,0.58,6.63,1.33,11.6c-3.06-5.15-6.44-10.23-6.72-10.71
			c-10.33-17.64-15.67-36.69-16.42-57.08c-0.09-2.49,0.6-4.26,2.47-6.05c3.53-3.37,5.95-7.51,7.24-13.17
			c-3.6,3.05-5.04,6.95-9.14,9.48c0-4.22,0-7.79,0-11.35c-2.09,2.37-2.98,4.89-3.2,7.67c-0.08,0.96-0.19,2.27-1.36,2.37
			c-0.61,0.05-1.43-0.84-1.95-1.47c-2.4-2.85-3.89-6.27-5.93-10.45c-0.42,6.46,1.62,11.11,5.34,14.81c2.43,2.41,3.02,4.88,2.89,8.08
			c-0.92,21.89,5.43,41.75,16.89,60.22c1.15,1.85,8.41,12.49,12.34,16.89c-3.47,2.55-7.19,4.8-10.5,7.53
			c-20.63,17.01-36.87,37.76-50.51,60.55c-26.82,44.8-41.73,93.87-51.34,144.81c-0.58,3.08,0.3,7.36-2.11,9.04
			c-6.03,4.19-5.71,10.24-6.32,15.01c-0.07,6.84,0.69,12.46,1.76,17.95c1.13,5.77,1.78,11.73,4.17,17.2
			c0.65,1.49,1.28,3.7,3.32,3.39c1.81-0.27,2.37-2.35,2.95-3.99c0.19-0.53,0.15-1.15,0.27-1.71c1.15-5.22,1.05-10.68,2.3-15.8
			c1.74-7.12,2.35-14.2,2.02-21.43c-0.16-3.54-0.93-6.95-3.88-9.31c-1.61-1.28-1.15-2.64-0.84-4.27
			c4.01-21.36,9.47-42.33,16.03-63.05c11.36-35.89,25.53-70.44,47.45-101.37c7.11-10.04,14.91-19.52,23.4-28.43
			c7.7-8.08,16.5-14.92,24.81-22.32c0.58-0.51,1.53-1.49,1.53-1.49c4.81,2.99,13.01,5.7,13.89,6.1c6.21,2.81,12.47,5.41,19.21,6.76
			c14.23,2.84,28.46,4.77,42.58-0.33c3.83-1.38,7.43-1.07,11.34-0.57c6.59,0.84,13.22,0.71,18.24-4.79
			C518.35,126.97,512.77,128.47,506.1,126.42z"/>
		
			<linearGradient id="SVGID_00000146479393122151627300000018291904505854713769_" gradientUnits="userSpaceOnUse" x1="483.4756" y1="59.5477" x2="483.6324" y2="59.5477">
			<stop  offset="0" style="stop-color:#7A501E"/>
			<stop  offset="0.3529" style="stop-color:#A3702A"/>
			<stop  offset="0.5894" style="stop-color:#C49543"/>
			<stop  offset="0.648" style="stop-color:#CC9F49"/>
			<stop  offset="0.8045" style="stop-color:#8C5D21"/>
			<stop  offset="0.9134" style="stop-color:#7A501E"/>
		</linearGradient>
		<path style="fill:url(#SVGID_00000146479393122151627300000018291904505854713769_);" d="M483.58,59.46
			c-0.03,0.06-0.07,0.12-0.11,0.18c0.05-0.04,0.1-0.09,0.16-0.13L483.58,59.46z"/>
		
			<linearGradient id="SVGID_00000032627238989461895170000005059106556345138348_" gradientUnits="userSpaceOnUse" x1="435.8458" y1="15.1687" x2="436.0325" y2="15.1687">
			<stop  offset="0" style="stop-color:#7A501E"/>
			<stop  offset="0.3529" style="stop-color:#A3702A"/>
			<stop  offset="0.5894" style="stop-color:#C49543"/>
			<stop  offset="0.648" style="stop-color:#CC9F49"/>
			<stop  offset="0.8045" style="stop-color:#8C5D21"/>
			<stop  offset="0.9134" style="stop-color:#7A501E"/>
		</linearGradient>
		<polygon style="fill:url(#SVGID_00000032627238989461895170000005059106556345138348_);" points="435.85,15.2 435.89,15.24 
			436.03,15.1 		"/>
		
			<linearGradient id="SVGID_00000070113857471589740910000016142773538090101888_" gradientUnits="userSpaceOnUse" x1="168.3725" y1="229.6234" x2="389.6755" y2="229.6234">
			<stop  offset="0" style="stop-color:#7A501E"/>
			<stop  offset="0.3529" style="stop-color:#A3702A"/>
			<stop  offset="0.5894" style="stop-color:#C49543"/>
			<stop  offset="0.648" style="stop-color:#CC9F49"/>
			<stop  offset="0.8045" style="stop-color:#8C5D21"/>
			<stop  offset="0.9134" style="stop-color:#7A501E"/>
		</linearGradient>
		<path style="fill:url(#SVGID_00000070113857471589740910000016142773538090101888_);" d="M197.28,327.23
			c-0.54,13.93,1.29,27.54,4.59,40.97c4.75,18.42,13.05,31.37,15.98,35.56c-12.91-17.84-18.54-30.2-20.44-34.94
			c0-0.01-0.01-0.01-0.01-0.02c0,0,0-0.01,0-0.01c-0.56-1.4-0.8-2.13-0.8-2.13l0.03,0.01c-2.6-7.51-4.09-15.16-5.29-23.03
			c-1.91-12.5-1.56-25.1-0.74-37.5c0.83-12.63,4.06-25.07,8.42-37.16c2.03-5.62,4.14-11.28,5.56-17.21
			c0.99-4.13,2.85-8.43,3.72-12.73c2.5-12.27,5.62-24.55,4.11-37.25c-1.4-11.81-6.49-22.15-12.92-32.02
			c-7.97-12.24-14.67-25.19-20.58-38.57c-3.04-6.88-6.34-13.61-8.65-20.79l-0.01,0c0,0-0.04-0.13-0.12-0.37
			c-0.01-0.03-0.02-0.07-0.03-0.1c-0.02-0.05-0.03-0.11-0.04-0.16c-1.45-5.01-9.55-38.57,28.99-52.33c0,0,19.71-6.29,54.91,3.81
			c17.7,5.08,31.36,12.41,32.45,12.95c0,0-71.7-26.8-98.17-2.65c0,0-15.22,10.81-7.28,38.45c0.57,1.66,1.2,3.29,1.93,4.91
			c8.9,19.71,19.11,38.69,31.07,56.71c5.83,8.78,8.46,18.57,9.19,28.87c1.23,17.19-1.89,33.84-6.68,50.29
			c-4.17,14.32-11.25,27.59-14.54,42.23C199.4,304.32,197.73,315.68,197.28,327.23z M258.23,105.63
			c-4.35-0.13-14.56-4.63-19.69-7.11c3.26,3.38,13.29,13.05,32.27,12.91c11.2-0.09,22.2-3.09,31.94-8.62
			c0.74-0.42,1.48-0.85,2.25-1.3c13.31-7.81,27.1-14.56,41.82-19.32c25.63-7.89,36.11-1.05,39.58,9.72
			c1.06,3.29,1.69,6.68,2.17,10.78c2.08-3.74,1.65-20.67-4.8-25.81c-7.01-6.88-21.35-13.28-54.93,0.31
			c-15.22,5.33-28.2,14.86-42.18,22.54C277.99,104.48,270.14,106.54,258.23,105.63z M257.95,251.28L257.95,251.28
			c-9.71,21.91-18.26,44.25-24.31,67.48c-4.16,15.95-7.79,28.99-7.93,54.54c-0.07,1.02-0.03,1.69,0.12,2.34
			c-0.08,7.67,0.2,15.71,1.24,22.52c0,0,0.11-20.52,3.65-43.61c3.02-26.83,13.22-51.38,23.98-75.78c3.71-8.41,8.08-16.48,12.2-24.67
			l0,0c0,0,7.61-14.78,15.55-29.78l-9.38-5.52C273.07,218.8,265.24,232.92,257.95,251.28z"/>
	</g>
	<g>
		
			<linearGradient id="SVGID_00000056402657593136531140000001434177084836087484_" gradientUnits="userSpaceOnUse" x1="508.7963" y1="326.7686" x2="508.7963" y2="162.5769">
			<stop  offset="0" style="stop-color:#7A501E"/>
			<stop  offset="0.3529" style="stop-color:#A3702A"/>
			<stop  offset="0.5894" style="stop-color:#C49543"/>
			<stop  offset="0.648" style="stop-color:#CC9F49"/>
			<stop  offset="0.8045" style="stop-color:#8C5D21"/>
			<stop  offset="0.9134" style="stop-color:#7A501E"/>
		</linearGradient>
		<path style="fill:url(#SVGID_00000056402657593136531140000001434177084836087484_);" d="M529.03,231.01
			c19.27-5.29,31.36-17.65,31.36-32.68h0c0-10.49-5.55-19.43-16.05-25.86c-10.58-6.48-25.49-9.9-43.13-9.9h-66.65v3.29h1
			c0.5,0,12.13,0.12,12.13,10.59V312.9c0,10.47-11.63,10.59-12.13,10.59h-1v3.29h82.87c20.54,0,37.43-4.6,48.85-13.3
			c10.97-8.37,16.77-20.32,16.77-34.55C583.04,251.91,563,234.33,529.03,231.01z M558.11,311.21c-8.47,8.14-22.16,12.27-40.69,12.27
			h-57.18V165.86h40.96c29.83,0,45.6,11.23,45.6,32.47c0,20.47-14.27,32.21-39.16,32.21v0.02h-18.06v3.26h18.06h9.78
			c35.01,0,52.03,14.75,52.03,45.08C569.45,293.31,565.74,303.87,558.11,311.21z"/>
		
			<linearGradient id="SVGID_00000063599379129455870630000009550328748123159459_" gradientUnits="userSpaceOnUse" x1="660.8459" y1="330.8869" x2="660.8459" y2="191.9261">
			<stop  offset="0" style="stop-color:#7A501E"/>
			<stop  offset="0.3529" style="stop-color:#A3702A"/>
			<stop  offset="0.5894" style="stop-color:#C49543"/>
			<stop  offset="0.648" style="stop-color:#CC9F49"/>
			<stop  offset="0.8045" style="stop-color:#8C5D21"/>
			<stop  offset="0.9134" style="stop-color:#7A501E"/>
		</linearGradient>
		<path style="fill:url(#SVGID_00000063599379129455870630000009550328748123159459_);" d="M713.21,312.9v-82.13
			c0-22.87-22.54-38.84-54.81-38.84c-19.6,0-39.64,9.71-48.72,23.62l-0.34,0.52l1.94,3.23l0.86-1.4
			c7.69-12.44,24.21-19.86,44.2-19.86c22.18,0,44.57,10.91,44.57,35.3v4.15c-23.45,0.08-44.54,2.84-61.05,7.99
			c-29.53,9.22-44.5,25.66-44.5,48.87c0,8.3,3.68,17.26,9.85,23.94c5.3,5.74,14.93,12.58,30.79,12.58
			c19.38,0,35.65-9.58,48.36-28.47c8.93-13.28,13.92-27.96,16.55-37.99v48.47c0,10.46-11.63,10.58-12.13,10.58h-1v3.29h38.56v-3.29
			h-1C724.84,323.48,713.21,323.36,713.21,312.9z M700.91,244.67c0,14.41-16.04,81.64-61.56,81.64c-17.63,0-30.92-14.84-30.92-34.53
			c0-33.18,31.98-50.81,92.48-51V244.67z"/>
		
			<linearGradient id="SVGID_00000095335372867349405870000002727551327295096997_" gradientUnits="userSpaceOnUse" x1="793.4496" y1="330.8878" x2="793.4496" y2="191.9261">
			<stop  offset="0" style="stop-color:#7A501E"/>
			<stop  offset="0.3529" style="stop-color:#A3702A"/>
			<stop  offset="0.5894" style="stop-color:#C49543"/>
			<stop  offset="0.648" style="stop-color:#CC9F49"/>
			<stop  offset="0.8045" style="stop-color:#8C5D21"/>
			<stop  offset="0.9134" style="stop-color:#7A501E"/>
		</linearGradient>
		<path style="fill:url(#SVGID_00000095335372867349405870000002727551327295096997_);" d="M796.47,254.55
			c-25.37-6.4-49.33-12.44-49.33-31.76c0-15.98,18.31-27.58,43.54-27.58c28.91,0,38.98,15.89,45.65,26.41l0.82,1.3l8.21-9.47
			l-0.7-0.66c-15.21-14.24-32.36-20.87-53.98-20.87c-37.94,0-51.72,22.31-51.72,37.3c0,24.79,27.53,31.35,54.15,37.69
			c25.11,5.98,48.83,11.63,48.83,31.56c0,16.87-20.58,29.12-48.94,29.12c-30.46,0-40.44-15.75-47.04-26.17l-0.97-1.53l-8.21,9.47
			l0.7,0.66c14.16,13.26,34.4,20.87,55.52,20.87c39.25,0,57.12-20.54,57.12-39.62C850.12,268.08,822.85,261.2,796.47,254.55z"/>
		
			<linearGradient id="SVGID_00000025415364548446543810000000421738575954283939_" gradientUnits="userSpaceOnUse" x1="908.7091" y1="330.8869" x2="908.7091" y2="175.7062">
			<stop  offset="0" style="stop-color:#7A501E"/>
			<stop  offset="0.3529" style="stop-color:#A3702A"/>
			<stop  offset="0.5894" style="stop-color:#C49543"/>
			<stop  offset="0.648" style="stop-color:#CC9F49"/>
			<stop  offset="0.8045" style="stop-color:#8C5D21"/>
			<stop  offset="0.9134" style="stop-color:#7A501E"/>
		</linearGradient>
		<path style="fill:url(#SVGID_00000025415364548446543810000000421738575954283939_);" d="M953.15,304.98
			c-6.4,12.58-19.03,19.79-34.64,19.79c-20.19,0-32.73-13.53-32.73-35.3v-89.62h40.93v-3.8h-40.93v-20.34h-2.69l-21.97,20.91v2.72h1
			c5.62,0,11.36,1.26,11.36,10.59v82.12c0,22.87,17.88,38.84,43.48,38.84c17.57,0,32.92-12.06,38.99-23.97l0.33-0.65l-2.52-2.52
			L953.15,304.98z"/>
		
			<linearGradient id="SVGID_00000065068572924320692340000007256980706421416633_" gradientUnits="userSpaceOnUse" x1="1030.7086" y1="330.8878" x2="1030.7086" y2="191.9251">
			<stop  offset="0" style="stop-color:#7A501E"/>
			<stop  offset="0.3529" style="stop-color:#A3702A"/>
			<stop  offset="0.5894" style="stop-color:#C49543"/>
			<stop  offset="0.648" style="stop-color:#CC9F49"/>
			<stop  offset="0.8045" style="stop-color:#8C5D21"/>
			<stop  offset="0.9134" style="stop-color:#7A501E"/>
		</linearGradient>
		<path style="fill:url(#SVGID_00000065068572924320692340000007256980706421416633_);" d="M1030.71,191.93
			c-19.69,0-37.45,6.92-50.01,19.47c-12.56,12.56-19.47,30.32-19.47,50.01c0,19.69,6.92,37.45,19.47,50.01
			c12.56,12.56,30.32,19.47,50.01,19.47c19.69,0,37.45-6.92,50.01-19.47c12.56-12.56,19.47-30.32,19.47-50.01
			c0-19.69-6.92-37.45-19.47-50.01C1068.16,198.84,1050.4,191.93,1030.71,191.93z M1030.71,327.6c-33.21,0-56.41-27.22-56.41-66.19
			s23.2-66.19,56.41-66.19c33.21,0,56.41,27.22,56.41,66.19S1063.92,327.6,1030.71,327.6z"/>
		
			<linearGradient id="SVGID_00000034792979593142364430000000159171176270946219_" gradientUnits="userSpaceOnUse" x1="1172.0626" y1="330.8878" x2="1172.0626" y2="191.9261">
			<stop  offset="0" style="stop-color:#7A501E"/>
			<stop  offset="0.3529" style="stop-color:#A3702A"/>
			<stop  offset="0.5894" style="stop-color:#C49543"/>
			<stop  offset="0.648" style="stop-color:#CC9F49"/>
			<stop  offset="0.8045" style="stop-color:#8C5D21"/>
			<stop  offset="0.9134" style="stop-color:#7A501E"/>
		</linearGradient>
		<path style="fill:url(#SVGID_00000034792979593142364430000000159171176270946219_);" d="M1175.09,254.55
			c-25.37-6.4-49.33-12.44-49.33-31.76c0-15.98,18.31-27.58,43.54-27.58c28.91,0,38.98,15.89,45.65,26.41l0.82,1.3l8.21-9.47
			l-0.7-0.66c-15.21-14.24-32.36-20.87-53.98-20.87c-37.94,0-51.72,22.31-51.72,37.3c0,24.79,27.53,31.35,54.15,37.69
			c25.11,5.98,48.83,11.63,48.83,31.56c0,16.87-20.58,29.12-48.94,29.12c-30.46,0-40.44-15.75-47.04-26.17l-0.97-1.53l-8.21,9.47
			l0.7,0.66c14.16,13.26,34.4,20.87,55.52,20.87c39.25,0,57.12-20.54,57.12-39.62C1228.74,268.08,1201.46,261.2,1175.09,254.55z"/>
	</g>
	
		<linearGradient id="SVGID_00000165916643211640528630000008374996904260063421_" gradientUnits="userSpaceOnUse" x1="491.2895" y1="379.9241" x2="1183.8282" y2="379.9241">
		<stop  offset="0" style="stop-color:#7A501E"/>
		<stop  offset="0.3529" style="stop-color:#A3702A"/>
		<stop  offset="0.5894" style="stop-color:#C49543"/>
		<stop  offset="0.648" style="stop-color:#CC9F49"/>
		<stop  offset="0.8045" style="stop-color:#8C5D21"/>
		<stop  offset="0.9134" style="stop-color:#7A501E"/>
	</linearGradient>
	<path style="fill:url(#SVGID_00000165916643211640528630000008374996904260063421_);" d="M504.87,392.86
		c-1.96,0-3.77-0.32-5.42-0.97c-1.65-0.65-3.09-1.55-4.31-2.71c-1.22-1.16-2.17-2.53-2.84-4.1c-0.67-1.57-1.01-3.29-1.01-5.16
		c0-1.87,0.34-3.59,1.01-5.15c0.67-1.57,1.62-2.93,2.84-4.1c1.22-1.16,2.66-2.07,4.31-2.71c1.65-0.65,3.45-0.97,5.39-0.97
		c1.96,0,3.77,0.32,5.41,0.97c1.64,0.65,3.07,1.55,4.29,2.71c1.22,1.16,2.17,2.53,2.84,4.1c0.67,1.57,1.01,3.29,1.01,5.15
		c0,1.87-0.34,3.59-1.01,5.17c-0.67,1.58-1.62,2.95-2.84,4.09c-1.22,1.15-2.65,2.05-4.29,2.7
		C508.6,392.53,506.81,392.86,504.87,392.86z M504.83,388.76c1.27,0,2.44-0.22,3.52-0.65c1.08-0.43,2.01-1.05,2.8-1.85
		c0.79-0.8,1.41-1.74,1.85-2.8c0.44-1.07,0.66-2.25,0.66-3.54s-0.22-2.47-0.66-3.54c-0.44-1.07-1.06-2-1.85-2.8
		c-0.79-0.8-1.73-1.42-2.8-1.85c-1.08-0.43-2.25-0.65-3.52-0.65c-1.27,0-2.44,0.21-3.5,0.65c-1.07,0.43-2,1.05-2.8,1.85
		c-0.8,0.8-1.43,1.74-1.87,2.8s-0.66,2.24-0.66,3.54c0,1.27,0.22,2.44,0.66,3.52c0.44,1.08,1.06,2.02,1.85,2.82
		c0.79,0.8,1.72,1.42,2.8,1.85C502.39,388.55,503.56,388.76,504.83,388.76z M531.96,392.5v-25.15h10.99c2.73,0,5.13,0.53,7.19,1.58
		c2.06,1.05,3.66,2.52,4.81,4.38c1.15,1.87,1.72,4.07,1.72,6.61c0,2.52-0.57,4.71-1.72,6.59c-1.15,1.88-2.75,3.35-4.81,4.4
		c-2.06,1.05-4.46,1.58-7.19,1.58H531.96z M536.63,388.55h6.11c1.87,0,3.5-0.36,4.89-1.08c1.39-0.72,2.46-1.72,3.22-3.02
		c0.75-1.29,1.13-2.8,1.13-4.53c0-1.75-0.38-3.26-1.13-4.54c-0.76-1.28-1.83-2.28-3.22-3c-1.39-0.72-3.02-1.08-4.89-1.08h-6.11
		V388.55z M582.04,392.86c-1.96,0-3.77-0.32-5.43-0.97c-1.65-0.65-3.09-1.55-4.31-2.71c-1.22-1.16-2.17-2.53-2.84-4.1
		c-0.67-1.57-1.01-3.29-1.01-5.16c0-1.87,0.34-3.59,1.01-5.15c0.67-1.57,1.62-2.93,2.84-4.1c1.22-1.16,2.66-2.07,4.31-2.71
		c1.65-0.65,3.45-0.97,5.39-0.97c1.96,0,3.77,0.32,5.41,0.97c1.64,0.65,3.07,1.55,4.29,2.71c1.22,1.16,2.17,2.53,2.84,4.1
		c0.67,1.57,1.01,3.29,1.01,5.15c0,1.87-0.34,3.59-1.01,5.17c-0.67,1.58-1.62,2.95-2.84,4.09c-1.22,1.15-2.65,2.05-4.29,2.7
		C585.77,392.53,583.98,392.86,582.04,392.86z M582,388.76c1.27,0,2.44-0.22,3.52-0.65c1.08-0.43,2.01-1.05,2.8-1.85
		c0.79-0.8,1.41-1.74,1.85-2.8s0.67-2.25,0.67-3.54s-0.22-2.47-0.67-3.54s-1.06-2-1.85-2.8c-0.79-0.8-1.72-1.42-2.8-1.85
		c-1.08-0.43-2.25-0.65-3.52-0.65c-1.27,0-2.44,0.21-3.5,0.65c-1.07,0.43-2,1.05-2.8,1.85c-0.8,0.8-1.43,1.74-1.87,2.8
		c-0.44,1.07-0.66,2.24-0.66,3.54c0,1.27,0.22,2.44,0.66,3.52c0.44,1.08,1.06,2.02,1.85,2.82c0.79,0.8,1.72,1.42,2.8,1.85
		C579.56,388.55,580.73,388.76,582,388.76z M609.13,392.5v-25.15h3.84l15.77,19.36h-1.9v-19.36h4.63v25.15h-3.84l-15.77-19.36h1.9
		v19.36H609.13z M651.95,392.5v-21.2h-8.34v-3.95h21.34v3.95h-8.34v21.2H651.95z M688.52,392.86c-1.96,0-3.77-0.32-5.43-0.97
		c-1.65-0.65-3.09-1.55-4.31-2.71c-1.22-1.16-2.17-2.53-2.84-4.1c-0.67-1.57-1.01-3.29-1.01-5.16c0-1.87,0.34-3.59,1.01-5.15
		s1.62-2.93,2.84-4.1c1.22-1.16,2.66-2.07,4.31-2.71c1.65-0.65,3.45-0.97,5.39-0.97c1.96,0,3.77,0.32,5.41,0.97
		c1.64,0.65,3.07,1.55,4.29,2.71c1.22,1.16,2.17,2.53,2.84,4.1c0.67,1.57,1.01,3.29,1.01,5.15c0,1.87-0.34,3.59-1.01,5.17
		c-0.67,1.58-1.62,2.95-2.84,4.09c-1.22,1.15-2.65,2.05-4.29,2.7C692.25,392.53,690.46,392.86,688.52,392.86z M688.49,388.76
		c1.27,0,2.44-0.22,3.52-0.65c1.08-0.43,2.01-1.05,2.8-1.85c0.79-0.8,1.41-1.74,1.85-2.8c0.44-1.07,0.66-2.25,0.66-3.54
		s-0.22-2.47-0.66-3.54c-0.44-1.07-1.06-2-1.85-2.8c-0.79-0.8-1.72-1.42-2.8-1.85c-1.08-0.43-2.25-0.65-3.52-0.65
		c-1.27,0-2.44,0.21-3.5,0.65c-1.07,0.43-2,1.05-2.8,1.85c-0.8,0.8-1.43,1.74-1.87,2.8c-0.44,1.07-0.66,2.24-0.66,3.54
		c0,1.27,0.22,2.44,0.66,3.52c0.44,1.08,1.06,2.02,1.85,2.82c0.79,0.8,1.72,1.42,2.8,1.85
		C686.04,388.55,687.22,388.76,688.49,388.76z M715.61,392.5v-25.15h4.67v21.2h13.15v3.95H715.61z M757.07,392.86
		c-1.96,0-3.77-0.32-5.43-0.97c-1.65-0.65-3.09-1.55-4.31-2.71c-1.22-1.16-2.17-2.53-2.84-4.1c-0.67-1.57-1.01-3.29-1.01-5.16
		c0-1.87,0.34-3.59,1.01-5.15c0.67-1.57,1.62-2.93,2.84-4.1c1.22-1.16,2.66-2.07,4.31-2.71c1.65-0.65,3.45-0.97,5.39-0.97
		c1.96,0,3.77,0.32,5.41,0.97c1.64,0.65,3.07,1.55,4.29,2.71c1.22,1.16,2.17,2.53,2.84,4.1c0.67,1.57,1.01,3.29,1.01,5.15
		c0,1.87-0.34,3.59-1.01,5.17c-0.67,1.58-1.62,2.95-2.84,4.09c-1.22,1.15-2.65,2.05-4.29,2.7
		C760.8,392.53,759.01,392.86,757.07,392.86z M757.03,388.76c1.27,0,2.44-0.22,3.52-0.65c1.08-0.43,2.01-1.05,2.8-1.85
		c0.79-0.8,1.41-1.74,1.85-2.8c0.44-1.07,0.66-2.25,0.66-3.54s-0.22-2.47-0.66-3.54c-0.44-1.07-1.06-2-1.85-2.8
		c-0.79-0.8-1.72-1.42-2.8-1.85c-1.08-0.43-2.25-0.65-3.52-0.65c-1.27,0-2.44,0.21-3.5,0.65c-1.07,0.43-2,1.05-2.8,1.85
		c-0.8,0.8-1.43,1.74-1.87,2.8c-0.44,1.07-0.67,2.24-0.67,3.54c0,1.27,0.22,2.44,0.67,3.52c0.44,1.08,1.06,2.02,1.85,2.82
		c0.79,0.8,1.72,1.42,2.8,1.85C754.59,388.55,755.76,388.76,757.03,388.76z M795.9,392.86c-1.96,0-3.77-0.32-5.41-0.95
		c-1.64-0.63-3.07-1.53-4.29-2.69c-1.22-1.16-2.17-2.53-2.84-4.11c-0.67-1.58-1.01-3.31-1.01-5.17c0-1.87,0.34-3.59,1.01-5.17
		c0.67-1.58,1.62-2.95,2.86-4.11c1.23-1.16,2.68-2.06,4.33-2.69s3.46-0.95,5.42-0.95c2.13,0,4.05,0.35,5.77,1.04
		c1.71,0.69,3.16,1.71,4.33,3.05l-2.95,2.87c-0.98-0.98-2.04-1.71-3.18-2.17c-1.14-0.47-2.39-0.7-3.75-0.7
		c-1.32,0-2.54,0.21-3.66,0.65c-1.13,0.43-2.1,1.04-2.91,1.83c-0.81,0.79-1.44,1.72-1.89,2.8c-0.44,1.08-0.67,2.26-0.67,3.56
		c0,1.27,0.22,2.44,0.67,3.52c0.44,1.08,1.07,2.02,1.89,2.82c0.81,0.8,1.77,1.42,2.87,1.85c1.1,0.43,2.32,0.65,3.66,0.65
		c1.25,0,2.45-0.2,3.61-0.59c1.16-0.39,2.27-1.06,3.32-1.99l2.66,3.48c-1.32,1.05-2.84,1.85-4.58,2.39
		C799.43,392.59,797.68,392.86,795.9,392.86z M805.75,389.66l-4.42-0.61v-9.41h4.42V389.66z M820.51,392.5v-25.15h4.67v25.15H820.51
		z M837.04,392.5l11.32-25.15h4.6l11.35,25.15h-4.89l-9.74-22.67h1.87l-9.7,22.67H837.04z M842.25,386.68l1.26-3.67h13.58l1.26,3.67
		H842.25z M894.66,392.5v-25.15h4.67v25.15H894.66z M914.74,392.5v-25.15h3.84l15.77,19.36h-1.9v-19.36h4.63v25.15h-3.84
		l-15.77-19.36h1.9v19.36H914.74z M957.57,392.5v-21.2h-8.34v-3.95h21.34v3.95h-8.34v21.2H957.57z M982.72,392.5v-25.15h18.36v3.92
		h-13.69v17.32h14.19v3.92H982.72z M987.03,381.65v-3.84h12.5v3.84H987.03z M1027.16,392.86c-1.96,0-3.77-0.32-5.41-0.95
		c-1.64-0.63-3.07-1.53-4.29-2.69c-1.22-1.16-2.17-2.53-2.84-4.11c-0.67-1.58-1.01-3.31-1.01-5.17c0-1.87,0.34-3.59,1.01-5.17
		c0.67-1.58,1.62-2.95,2.86-4.11c1.23-1.16,2.68-2.06,4.33-2.69s3.46-0.95,5.42-0.95c2.13,0,4.05,0.35,5.77,1.04
		c1.71,0.69,3.16,1.71,4.33,3.05l-2.95,2.87c-0.98-0.98-2.04-1.71-3.18-2.17c-1.14-0.47-2.39-0.7-3.75-0.7
		c-1.32,0-2.54,0.21-3.66,0.65c-1.13,0.43-2.1,1.04-2.91,1.83c-0.81,0.79-1.44,1.72-1.89,2.8c-0.44,1.08-0.67,2.26-0.67,3.56
		c0,1.27,0.22,2.44,0.67,3.52c0.44,1.08,1.07,2.02,1.89,2.82c0.81,0.8,1.77,1.42,2.87,1.85c1.1,0.43,2.32,0.65,3.66,0.65
		c1.25,0,2.45-0.2,3.61-0.59c1.16-0.39,2.27-1.06,3.32-1.99l2.66,3.48c-1.32,1.05-2.84,1.85-4.58,2.39
		C1030.68,392.59,1028.93,392.86,1027.16,392.86z M1037,389.66l-4.42-0.61v-9.41h4.42V389.66z M1051.77,392.5v-25.15h10.31
		c3.35,0,5.98,0.79,7.89,2.37c1.9,1.58,2.86,3.77,2.86,6.57c0,1.84-0.43,3.43-1.29,4.76c-0.86,1.33-2.09,2.35-3.68,3.05
		c-1.59,0.71-3.5,1.06-5.73,1.06h-7.76l2.08-2.12v9.45H1051.77z M1056.44,383.55l-2.08-2.23h7.54c2.06,0,3.61-0.44,4.65-1.33
		c1.04-0.89,1.56-2.12,1.56-3.7c0-1.6-0.52-2.84-1.56-3.7c-1.04-0.86-2.59-1.29-4.65-1.29h-7.54l2.08-2.3V383.55z M1068.22,392.5
		l-6.36-9.13h4.99l6.4,9.13H1068.22z M1083.09,392.5l11.32-25.15h4.6l11.35,25.15h-4.89l-9.74-22.67h1.87l-9.7,22.67H1083.09z
		 M1088.3,386.68l1.26-3.67h13.58l1.26,3.67H1088.3z M1122.18,392.5v-25.15h10.99c2.73,0,5.12,0.53,7.18,1.58s3.67,2.52,4.81,4.38
		c1.15,1.87,1.72,4.07,1.72,6.61c0,2.52-0.57,4.71-1.72,6.59c-1.15,1.88-2.75,3.35-4.81,4.4c-2.06,1.05-4.45,1.58-7.18,1.58H1122.18
		z M1126.85,388.55h6.11c1.87,0,3.5-0.36,4.89-1.08c1.39-0.72,2.46-1.72,3.21-3.02c0.76-1.29,1.13-2.8,1.13-4.53
		c0-1.75-0.38-3.26-1.13-4.54c-0.75-1.28-1.83-2.28-3.21-3c-1.39-0.72-3.02-1.08-4.89-1.08h-6.11V388.55z M1156.56,392.5
		l11.32-25.15h4.6l11.35,25.15h-4.89l-9.74-22.67h1.87l-9.7,22.67H1156.56z M1161.77,386.68l1.26-3.67h13.58l1.26,3.67H1161.77z"/>
</g>
<g>
	<g>
		
			<linearGradient id="SVGID_00000119815281683631565700000015679738192425957790_" gradientUnits="userSpaceOnUse" x1="435.6792" y1="14.4573" x2="435.7516" y2="14.4573">
			<stop  offset="0.014" style="stop-color:#9B6C2B"/>
			<stop  offset="0.1965" style="stop-color:#A3702A"/>
			<stop  offset="0.4683" style="stop-color:#DFB455"/>
			<stop  offset="0.6173" style="stop-color:#F3E4A4"/>
			<stop  offset="0.7179" style="stop-color:#EAC675"/>
			<stop  offset="0.7933" style="stop-color:#CC9F49"/>
			<stop  offset="1" style="stop-color:#8C5D21"/>
		</linearGradient>
		<path style="fill:url(#SVGID_00000119815281683631565700000015679738192425957790_);" d="M435.71,14.42
			c-0.01,0.03-0.02,0.05-0.03,0.08c0.02-0.01,0.05-0.03,0.07-0.04L435.71,14.42z"/>
		
			<linearGradient id="SVGID_00000127748607831396908990000004368798475452909994_" gradientUnits="userSpaceOnUse" x1="294.8428" y1="196.9849" x2="524.879" y2="196.9849">
			<stop  offset="0.014" style="stop-color:#9B6C2B"/>
			<stop  offset="0.1965" style="stop-color:#A3702A"/>
			<stop  offset="0.4683" style="stop-color:#DFB455"/>
			<stop  offset="0.6173" style="stop-color:#F3E4A4"/>
			<stop  offset="0.7179" style="stop-color:#EAC675"/>
			<stop  offset="0.7933" style="stop-color:#CC9F49"/>
			<stop  offset="1" style="stop-color:#8C5D21"/>
		</linearGradient>
		<path style="fill:url(#SVGID_00000127748607831396908990000004368798475452909994_);" d="M505.41,124.77
			c1.95-2.49,4.76-3.57,8.13-6.65c-3.71,1.67-8.11,3.32-11.56,4.87c0.37-6.32,4.25-9.72,7.91-13.75c-6.06,1.72-8.32,6.8-10.57,11.91
			c-0.6,1.36-0.55,3.15-2.63,3.53c-4.2,0.77-8.34,2.21-12.56,2.45c-17.22,0.99-33.86-1.99-49.9-8.3c-0.61-0.24-6.47-2.47-9.73-4.69
			c36.24,0.9,60.67-10.35,60.67-10.35l-0.01,0c3.94-1.65,7.6-3.98,11.17-6.42c4.71-3.22,8.28-7.2,13.64-8.95
			c3.55-1.16,6.95-2.76,9.96-4.98c2.64-1.95,4.9-4.25,4.95-6.47c0,0-8.42,7.55-14.06,7.65c0.35-1.83,4.1-7.77,4-7.87
			c-2.26,0.84-5.54,6.76-8.23,7.27c-1.62-5.27,0.85-11.82,4.73-15.81c0,0-7.39,4.71-8.12,12.08c-0.53,4.91-0.04,7.87-0.04,7.87
			s-5.87,5.21-10.13,7.78c-1.05,0.63-2.07,1.3-3.09,1.96c-3.1,2.01-6.45,3.53-9.78,5.09c-28.42,8.51-48.55,8.61-57.47,8.02
			c6.79-0.94,17.51-5.22,19.34-6.05c0.26-0.12,0.55-0.25,0.87-0.4c12.88-5.98,23.97-14.44,33.84-24.55c1.66-1.7,3.15-2.85,5.8-2.87
			c2.96-0.03,9.69-3.95,11.23-7.03c-3.2,1.52-7.94,4.68-10.2,3.45c-0.1-1.37,4.17-8.26,4.17-8.26s-6.27,5.84-8,5.42
			c-1.34-4.75,1.6-9.33,3.25-12.21c-4.2,3.36-5.92,7.93-5.46,13.1c0.24,2.67-0.64,4.16-2.46,5.77
			c-11.08,9.83-22.73,18.83-36.2,25.28c-0.46,0.22-11.91,4.35-17.85,6.52c5.18-4.41,11.76-10.65,12.34-11.16
			c2.24-1.98,4.67-3.77,6.74-5.92c12.09-12.54,22.36-26.41,29.67-42.29c1.12-2.44,2.65-3.7,5.1-4.6c3.85-1.41,9.76-4.82,10.91-9.6
			c-2.63,2.59-6.88,5.96-11.12,5.69c0.99-3.82,3.24-10.83,3.24-10.83c-1.85,1.31-4.09,7.66-6.85,9.44
			c-2.43-3.3-2.04-9.17-2.34-13.49c-2.26,4.66-1.82,11.15-0.01,14.97c0.84,1.77,0.83,3.08-0.18,4.76
			c-6.88,11.42-14.31,22.44-22.68,32.83c-4.66,5.78-9.54,11.34-14.76,16.61c-0.52,0.53-9.53,8.22-14.02,13.4
			c0.67-3.7,1.6-9.3,3.28-15.41c4.34-12.35,8.57-21.78,15.02-33.17c1.68-2.97,3.64-5.51,7.98-6.09c5-0.66,9.23-3.82,11.5-8.77
			c0,0-6.96,5.26-11.91,4.85c1.36-3.14,3.4-5.62,4.69-8.74c-2.43,2.62-6.14,6.3-7.09,6.02c-1.01-0.31-1.18-1.45-1.37-2.43
			c-0.56-2.91,0.95-8.38,0.9-8.43c-2.82,3.04-3.99,6.56-2.64,10.63c0.92,2.78,0.55,5.05-1.39,7.44
			c-4.06,5.01-7.05,10.76-10.02,16.46c-4.69,9.01-7.69,18.64-10.04,28.49c-0.53,2.41-0.86,4.49-1.05,6.26
			c-0.4-8.26-2-24.14-2.18-28.68c-0.57-14.19,1.92-27.31,4.28-41.25c0.82-4.86,2.42-9.05,8.09-11.22
			c4.61-1.76,8.88-5.13,10.61-10.44c-4.86,2.59-8.59,7.26-14.64,8.24c-0.13-4.11,2.53-7.3,2.65-12.14
			c-2.67,5.26-4.84,9.55-7.15,14.12c-3.42-5.71-3.68-11.65-3.77-17.64c-2.44,6.54-1.9,12.9,1.16,19.01
			c0.98,1.96,1.07,3.65,0.44,5.69c-2.21,7.12-3.2,14.78-3.96,22.31c-1.33,13.22-1.43,25.73,0.56,38.77
			c0.11,0.72,0.58,6.58,1.32,11.51c-3.04-5.11-6.39-10.15-6.67-10.63c-10.25-17.5-15.55-36.4-16.3-56.64
			c-0.09-2.47,0.59-4.23,2.45-6c3.51-3.34,5.91-7.45,7.18-13.07c-3.58,3.03-5,6.89-9.07,9.4c0-4.19,0-7.73,0-11.26
			c-2.08,2.35-2.96,4.85-3.18,7.61c-0.08,0.95-0.19,2.25-1.35,2.35c-0.61,0.05-1.41-0.83-1.94-1.46c-2.38-2.83-3.86-6.22-5.89-10.37
			c-0.42,6.41,1.61,11.02,5.3,14.69c2.41,2.39,3,4.84,2.86,8.02c-0.91,21.72,5.38,41.42,16.76,59.75
			c1.14,1.84,8.34,12.39,12.25,16.76c-3.45,2.53-7.13,4.76-10.42,7.47c-20.46,16.88-36.58,37.47-50.12,60.08
			c-26.61,44.45-41.4,93.14-50.94,143.68c-0.58,3.06,0.29,7.3-2.1,8.97c-5.98,4.16-5.66,10.16-6.27,14.89
			c-0.07,6.79,0.68,12.36,1.75,17.81c1.12,5.73,1.76,11.63,4.13,17.06c0.64,1.47,1.27,3.67,3.3,3.37c1.8-0.27,2.35-2.33,2.93-3.96
			c0.19-0.53,0.15-1.14,0.27-1.7c1.14-5.18,1.04-10.6,2.28-15.67c1.72-7.06,2.33-14.09,2.01-21.27c-0.16-3.51-0.92-6.9-3.85-9.24
			c-1.59-1.27-1.14-2.62-0.84-4.23c3.98-21.19,9.39-42,15.9-62.56c11.28-35.61,25.33-69.89,47.08-100.57
			c7.06-9.96,14.79-19.36,23.21-28.21c7.64-8.02,16.38-14.8,24.62-22.14c0.57-0.51,1.52-1.48,1.52-1.48
			c4.78,2.96,12.91,5.65,13.78,6.05c6.16,2.79,12.37,5.37,19.06,6.7c14.12,2.82,28.24,4.73,42.25-0.32
			c3.8-1.37,7.38-1.06,11.25-0.57c6.54,0.83,13.12,0.71,18.1-4.75C517.57,125.31,512.03,126.8,505.41,124.77z"/>
		
			<linearGradient id="SVGID_00000005230081520016139390000016753713241349901963_" gradientUnits="userSpaceOnUse" x1="482.9658" y1="58.4172" x2="483.1215" y2="58.4172">
			<stop  offset="0.014" style="stop-color:#9B6C2B"/>
			<stop  offset="0.1965" style="stop-color:#A3702A"/>
			<stop  offset="0.4683" style="stop-color:#DFB455"/>
			<stop  offset="0.6173" style="stop-color:#F3E4A4"/>
			<stop  offset="0.7179" style="stop-color:#EAC675"/>
			<stop  offset="0.7933" style="stop-color:#CC9F49"/>
			<stop  offset="1" style="stop-color:#8C5D21"/>
		</linearGradient>
		<path style="fill:url(#SVGID_00000005230081520016139390000016753713241349901963_);" d="M483.07,58.33
			c-0.03,0.06-0.07,0.12-0.1,0.18c0.05-0.04,0.1-0.09,0.16-0.13L483.07,58.33z"/>
		
			<linearGradient id="SVGID_00000011741195488571314720000012250842377309568905_" gradientUnits="userSpaceOnUse" x1="435.7086" y1="14.3854" x2="435.8938" y2="14.3854">
			<stop  offset="0.014" style="stop-color:#9B6C2B"/>
			<stop  offset="0.1965" style="stop-color:#A3702A"/>
			<stop  offset="0.4683" style="stop-color:#DFB455"/>
			<stop  offset="0.6173" style="stop-color:#F3E4A4"/>
			<stop  offset="0.7179" style="stop-color:#EAC675"/>
			<stop  offset="0.7933" style="stop-color:#CC9F49"/>
			<stop  offset="1" style="stop-color:#8C5D21"/>
		</linearGradient>
		<polygon style="fill:url(#SVGID_00000011741195488571314720000012250842377309568905_);" points="435.71,14.42 435.75,14.46 
			435.89,14.31 		"/>
		
			<linearGradient id="SVGID_00000176026603895137268510000006153881338936576428_" gradientUnits="userSpaceOnUse" x1="170.3275" y1="227.1626" x2="389.8994" y2="227.1626">
			<stop  offset="0.014" style="stop-color:#9B6C2B"/>
			<stop  offset="0.1965" style="stop-color:#A3702A"/>
			<stop  offset="0.4683" style="stop-color:#DFB455"/>
			<stop  offset="0.6173" style="stop-color:#F3E4A4"/>
			<stop  offset="0.7179" style="stop-color:#EAC675"/>
			<stop  offset="0.7933" style="stop-color:#CC9F49"/>
			<stop  offset="1" style="stop-color:#8C5D21"/>
		</linearGradient>
		<path style="fill:url(#SVGID_00000176026603895137268510000006153881338936576428_);" d="M199.01,324
			c-0.54,13.82,1.28,27.33,4.55,40.65c4.71,18.28,12.95,31.13,15.85,35.28c-12.81-17.7-18.39-29.96-20.28-34.67
			c0-0.01-0.01-0.01-0.01-0.02c0,0,0-0.01,0-0.01c-0.56-1.39-0.79-2.11-0.79-2.11l0.03,0.01c-2.58-7.45-4.06-15.04-5.25-22.85
			c-1.89-12.4-1.55-24.9-0.73-37.21c0.83-12.54,4.03-24.88,8.35-36.87c2.01-5.57,4.11-11.19,5.52-17.08
			c0.98-4.1,2.83-8.37,3.69-12.63c2.48-12.17,5.57-24.36,4.08-36.96c-1.39-11.72-6.43-21.98-12.82-31.77
			c-7.91-12.14-14.55-24.99-20.42-38.27c-3.01-6.82-6.29-13.51-8.58-20.63l-0.01,0c0,0-0.04-0.13-0.11-0.37
			c-0.01-0.03-0.02-0.07-0.03-0.1c-0.02-0.05-0.03-0.11-0.04-0.16c-1.44-4.97-9.47-38.27,28.76-51.92c0,0,19.56-6.24,54.48,3.78
			c17.57,5.04,31.12,12.31,32.2,12.85c0,0-71.14-26.59-97.4-2.63c0,0-15.1,10.72-7.22,38.15c0.56,1.64,1.19,3.27,1.92,4.87
			c8.83,19.55,18.96,38.39,30.83,56.27c5.78,8.71,8.39,18.43,9.12,28.65c1.22,17.05-1.88,33.57-6.63,49.89
			c-4.14,14.2-11.17,27.37-14.43,41.9C201.11,301.27,199.46,312.54,199.01,324z M259.48,104.14c-4.32-0.13-14.45-4.6-19.54-7.06
			c3.24,3.35,13.19,12.95,32.02,12.81c11.11-0.08,22.03-3.07,31.69-8.55c0.73-0.41,1.47-0.84,2.23-1.29
			c13.21-7.74,26.89-14.45,41.49-19.16c25.43-7.83,35.83-1.04,39.27,9.64c1.05,3.27,1.68,6.63,2.15,10.7
			c2.06-3.71,1.63-20.51-4.77-25.61c-6.95-6.83-21.18-13.18-54.5,0.31c-15.1,5.29-27.98,14.75-41.85,22.36
			C279.09,103,271.3,105.04,259.48,104.14z M259.21,248.65L259.21,248.65c-9.64,21.74-18.11,43.91-24.12,66.95
			c-4.13,15.83-7.73,28.76-7.87,54.12c-0.07,1.01-0.03,1.68,0.12,2.32c-0.08,7.61,0.19,15.59,1.23,22.34c0,0,0.11-20.36,3.62-43.27
			c3-26.62,13.12-50.98,23.79-75.18c3.68-8.34,8.01-16.35,12.1-24.48l0,0c0,0,7.55-14.67,15.43-29.55l-9.3-5.47
			C274.2,216.42,266.43,230.43,259.21,248.65z"/>
	</g>
	<g>
		
			<linearGradient id="SVGID_00000133498013771179657950000003671456743234587798_" gradientUnits="userSpaceOnUse" x1="507.9561" y1="325.6884" x2="507.9561" y2="161.4966">
			<stop  offset="0.014" style="stop-color:#9B6C2B"/>
			<stop  offset="0.1965" style="stop-color:#A3702A"/>
			<stop  offset="0.4683" style="stop-color:#DFB455"/>
			<stop  offset="0.6173" style="stop-color:#F3E4A4"/>
			<stop  offset="0.7179" style="stop-color:#EAC675"/>
			<stop  offset="0.7933" style="stop-color:#CC9F49"/>
			<stop  offset="1" style="stop-color:#8C5D21"/>
		</linearGradient>
		<path style="fill:url(#SVGID_00000133498013771179657950000003671456743234587798_);" d="M528.19,229.93
			c19.27-5.29,31.36-17.65,31.36-32.68h0c0-10.49-5.55-19.43-16.05-25.86c-10.58-6.48-25.49-9.9-43.13-9.9h-66.65v3.29h1
			c0.5,0,12.13,0.12,12.13,10.59v136.45c0,10.47-11.63,10.59-12.13,10.59h-1v3.29h82.87c20.54,0,37.43-4.6,48.85-13.3
			c10.97-8.37,16.77-20.32,16.77-34.55C582.2,250.83,562.16,233.25,528.19,229.93z M557.27,310.13
			c-8.47,8.14-22.16,12.27-40.69,12.27H459.4V164.78h40.96c29.83,0,45.6,11.23,45.6,32.47c0,20.47-14.27,32.21-39.16,32.21v0.02
			h-18.06v3.26h18.06h9.78c35.01,0,52.03,14.75,52.03,45.08C568.61,292.23,564.9,302.79,557.27,310.13z"/>
		
			<linearGradient id="SVGID_00000152245003243166819040000002830411311576907909_" gradientUnits="userSpaceOnUse" x1="660.0057" y1="329.8066" x2="660.0057" y2="190.8458">
			<stop  offset="0.014" style="stop-color:#9B6C2B"/>
			<stop  offset="0.1965" style="stop-color:#A3702A"/>
			<stop  offset="0.4683" style="stop-color:#DFB455"/>
			<stop  offset="0.6173" style="stop-color:#F3E4A4"/>
			<stop  offset="0.7179" style="stop-color:#EAC675"/>
			<stop  offset="0.7933" style="stop-color:#CC9F49"/>
			<stop  offset="1" style="stop-color:#8C5D21"/>
		</linearGradient>
		<path style="fill:url(#SVGID_00000152245003243166819040000002830411311576907909_);" d="M712.37,311.82v-82.13
			c0-22.87-22.54-38.84-54.81-38.84c-19.6,0-39.64,9.71-48.72,23.62l-0.34,0.52l1.94,3.23l0.86-1.4
			c7.69-12.44,24.21-19.86,44.2-19.86c22.18,0,44.57,10.91,44.57,35.3v4.15c-23.45,0.08-44.54,2.84-61.05,7.99
			c-29.53,9.22-44.5,25.66-44.5,48.87c0,8.3,3.68,17.26,9.85,23.94c5.3,5.74,14.93,12.58,30.79,12.58
			c19.38,0,35.65-9.58,48.36-28.47c8.93-13.28,13.92-27.96,16.55-37.99v48.47c0,10.46-11.63,10.58-12.13,10.58h-1v3.29h38.56v-3.29
			h-1C724,322.4,712.37,322.28,712.37,311.82z M700.07,243.59c0,14.41-16.04,81.64-61.56,81.64c-17.63,0-30.92-14.84-30.92-34.53
			c0-33.18,31.98-50.81,92.48-51V243.59z"/>
		
			<linearGradient id="SVGID_00000139281242232666616930000004817358397988567942_" gradientUnits="userSpaceOnUse" x1="792.6094" y1="329.8076" x2="792.6094" y2="190.8458">
			<stop  offset="0.014" style="stop-color:#9B6C2B"/>
			<stop  offset="0.1965" style="stop-color:#A3702A"/>
			<stop  offset="0.4683" style="stop-color:#DFB455"/>
			<stop  offset="0.6173" style="stop-color:#F3E4A4"/>
			<stop  offset="0.7179" style="stop-color:#EAC675"/>
			<stop  offset="0.7933" style="stop-color:#CC9F49"/>
			<stop  offset="1" style="stop-color:#8C5D21"/>
		</linearGradient>
		<path style="fill:url(#SVGID_00000139281242232666616930000004817358397988567942_);" d="M795.63,253.47
			c-25.37-6.4-49.33-12.44-49.33-31.76c0-15.98,18.31-27.58,43.54-27.58c28.91,0,38.98,15.89,45.65,26.41l0.82,1.3l8.21-9.47
			l-0.7-0.66c-15.21-14.24-32.36-20.87-53.98-20.87c-37.94,0-51.72,22.31-51.72,37.3c0,24.79,27.53,31.35,54.15,37.69
			c25.11,5.98,48.83,11.63,48.83,31.56c0,16.87-20.58,29.12-48.94,29.12c-30.46,0-40.44-15.75-47.04-26.17l-0.97-1.53l-8.21,9.47
			l0.7,0.66c14.16,13.26,34.4,20.87,55.52,20.87c39.25,0,57.12-20.54,57.12-39.62C849.28,267,822.01,260.12,795.63,253.47z"/>
		
			<linearGradient id="SVGID_00000034075382103857791500000000645341587670722435_" gradientUnits="userSpaceOnUse" x1="907.8689" y1="329.8066" x2="907.8689" y2="174.6259">
			<stop  offset="0.014" style="stop-color:#9B6C2B"/>
			<stop  offset="0.1965" style="stop-color:#A3702A"/>
			<stop  offset="0.4683" style="stop-color:#DFB455"/>
			<stop  offset="0.6173" style="stop-color:#F3E4A4"/>
			<stop  offset="0.7179" style="stop-color:#EAC675"/>
			<stop  offset="0.7933" style="stop-color:#CC9F49"/>
			<stop  offset="1" style="stop-color:#8C5D21"/>
		</linearGradient>
		<path style="fill:url(#SVGID_00000034075382103857791500000000645341587670722435_);" d="M952.3,303.9
			c-6.4,12.58-19.03,19.79-34.64,19.79c-20.19,0-32.73-13.53-32.73-35.3v-89.62h40.93v-3.8h-40.93v-20.34h-2.69l-21.97,20.91v2.72h1
			c5.62,0,11.36,1.26,11.36,10.59v82.12c0,22.87,17.88,38.84,43.48,38.84c17.57,0,32.92-12.06,38.99-23.97l0.33-0.65l-2.52-2.52
			L952.3,303.9z"/>
		
			<linearGradient id="SVGID_00000081624550606101140000000008450474001802413499_" gradientUnits="userSpaceOnUse" x1="1029.8684" y1="329.8076" x2="1029.8684" y2="190.8448">
			<stop  offset="0.014" style="stop-color:#9B6C2B"/>
			<stop  offset="0.1965" style="stop-color:#A3702A"/>
			<stop  offset="0.4683" style="stop-color:#DFB455"/>
			<stop  offset="0.6173" style="stop-color:#F3E4A4"/>
			<stop  offset="0.7179" style="stop-color:#EAC675"/>
			<stop  offset="0.7933" style="stop-color:#CC9F49"/>
			<stop  offset="1" style="stop-color:#8C5D21"/>
		</linearGradient>
		<path style="fill:url(#SVGID_00000081624550606101140000000008450474001802413499_);" d="M1029.87,190.84
			c-19.69,0-37.45,6.92-50.01,19.47c-12.56,12.56-19.47,30.32-19.47,50.01s6.92,37.45,19.47,50.01
			c12.56,12.56,30.32,19.47,50.01,19.47c19.69,0,37.45-6.92,50.01-19.47c12.56-12.56,19.47-30.32,19.47-50.01
			s-6.92-37.45-19.47-50.01C1067.32,197.76,1049.56,190.84,1029.87,190.84z M1029.87,326.52c-33.21,0-56.41-27.22-56.41-66.19
			s23.2-66.19,56.41-66.19c33.21,0,56.41,27.22,56.41,66.19S1063.08,326.52,1029.87,326.52z"/>
		
			<linearGradient id="SVGID_00000072983021889610445230000010111462489177847464_" gradientUnits="userSpaceOnUse" x1="1171.2224" y1="329.8076" x2="1171.2224" y2="190.8458">
			<stop  offset="0.014" style="stop-color:#9B6C2B"/>
			<stop  offset="0.1965" style="stop-color:#A3702A"/>
			<stop  offset="0.4683" style="stop-color:#DFB455"/>
			<stop  offset="0.6173" style="stop-color:#F3E4A4"/>
			<stop  offset="0.7179" style="stop-color:#EAC675"/>
			<stop  offset="0.7933" style="stop-color:#CC9F49"/>
			<stop  offset="1" style="stop-color:#8C5D21"/>
		</linearGradient>
		<path style="fill:url(#SVGID_00000072983021889610445230000010111462489177847464_);" d="M1174.25,253.47
			c-25.37-6.4-49.33-12.44-49.33-31.76c0-15.98,18.31-27.58,43.54-27.58c28.91,0,38.98,15.89,45.65,26.41l0.82,1.3l8.21-9.47
			l-0.7-0.66c-15.21-14.24-32.36-20.87-53.98-20.87c-37.94,0-51.72,22.31-51.72,37.3c0,24.79,27.53,31.35,54.15,37.69
			c25.11,5.98,48.83,11.63,48.83,31.56c0,16.87-20.58,29.12-48.94,29.12c-30.46,0-40.44-15.75-47.04-26.17l-0.97-1.53l-8.21,9.47
			l0.7,0.66c14.16,13.26,34.4,20.87,55.52,20.87c39.25,0,57.12-20.54,57.12-39.62C1227.89,267,1200.62,260.12,1174.25,253.47z"/>
	</g>
	
		<linearGradient id="SVGID_00000168833094928086354760000009805962960528797828_" gradientUnits="userSpaceOnUse" x1="490.4493" y1="378.8439" x2="1182.988" y2="378.8439">
		<stop  offset="0.014" style="stop-color:#9B6C2B"/>
		<stop  offset="0.1425" style="stop-color:#E6C06A"/>
		<stop  offset="0.3529" style="stop-color:#A3702A"/>
		<stop  offset="0.4683" style="stop-color:#DFB455"/>
		<stop  offset="0.7179" style="stop-color:#EAC675"/>
		<stop  offset="0.7933" style="stop-color:#CC9F49"/>
		<stop  offset="1" style="stop-color:#8C5D21"/>
	</linearGradient>
	<path style="fill:url(#SVGID_00000168833094928086354760000009805962960528797828_);" d="M504.03,391.78
		c-1.96,0-3.77-0.32-5.42-0.97c-1.65-0.65-3.09-1.55-4.31-2.71c-1.22-1.16-2.17-2.53-2.84-4.1c-0.67-1.57-1.01-3.29-1.01-5.16
		c0-1.87,0.34-3.59,1.01-5.15c0.67-1.57,1.62-2.93,2.84-4.1c1.22-1.16,2.66-2.07,4.31-2.71c1.65-0.65,3.45-0.97,5.39-0.97
		c1.96,0,3.77,0.32,5.41,0.97c1.64,0.65,3.07,1.55,4.29,2.71c1.22,1.16,2.17,2.53,2.84,4.1c0.67,1.57,1.01,3.29,1.01,5.15
		c0,1.87-0.34,3.59-1.01,5.17c-0.67,1.58-1.62,2.95-2.84,4.09c-1.22,1.15-2.65,2.05-4.29,2.7
		C507.76,391.45,505.97,391.78,504.03,391.78z M503.99,387.68c1.27,0,2.44-0.22,3.52-0.65c1.08-0.43,2.01-1.05,2.8-1.85
		c0.79-0.8,1.41-1.74,1.85-2.8c0.44-1.07,0.66-2.25,0.66-3.54c0-1.29-0.22-2.47-0.66-3.54c-0.44-1.07-1.06-2-1.85-2.8
		c-0.79-0.8-1.73-1.42-2.8-1.85c-1.08-0.43-2.25-0.65-3.52-0.65c-1.27,0-2.44,0.21-3.5,0.65c-1.07,0.43-2,1.05-2.8,1.85
		c-0.8,0.8-1.43,1.74-1.87,2.8c-0.44,1.07-0.66,2.24-0.66,3.54c0,1.27,0.22,2.44,0.66,3.52c0.44,1.08,1.06,2.02,1.85,2.82
		c0.79,0.8,1.72,1.42,2.8,1.85C501.55,387.47,502.72,387.68,503.99,387.68z M531.12,391.42v-25.15h10.99c2.73,0,5.13,0.53,7.19,1.58
		c2.06,1.05,3.66,2.52,4.81,4.38c1.15,1.87,1.72,4.07,1.72,6.61c0,2.52-0.57,4.71-1.72,6.59c-1.15,1.88-2.75,3.35-4.81,4.4
		c-2.06,1.05-4.46,1.58-7.19,1.58H531.12z M535.79,387.47h6.11c1.87,0,3.5-0.36,4.89-1.08c1.39-0.72,2.46-1.72,3.22-3.02
		c0.75-1.29,1.13-2.8,1.13-4.53c0-1.75-0.38-3.26-1.13-4.54c-0.76-1.28-1.83-2.28-3.22-3c-1.39-0.72-3.02-1.08-4.89-1.08h-6.11
		V387.47z M581.2,391.78c-1.96,0-3.77-0.32-5.43-0.97c-1.65-0.65-3.09-1.55-4.31-2.71c-1.22-1.16-2.17-2.53-2.84-4.1
		c-0.67-1.57-1.01-3.29-1.01-5.16c0-1.87,0.34-3.59,1.01-5.15c0.67-1.57,1.62-2.93,2.84-4.1c1.22-1.16,2.66-2.07,4.31-2.71
		c1.65-0.65,3.45-0.97,5.39-0.97c1.96,0,3.77,0.32,5.41,0.97c1.64,0.65,3.07,1.55,4.29,2.71c1.22,1.16,2.17,2.53,2.84,4.1
		c0.67,1.57,1.01,3.29,1.01,5.15c0,1.87-0.34,3.59-1.01,5.17c-0.67,1.58-1.62,2.95-2.84,4.09c-1.22,1.15-2.65,2.05-4.29,2.7
		C584.93,391.45,583.14,391.78,581.2,391.78z M581.16,387.68c1.27,0,2.44-0.22,3.52-0.65c1.08-0.43,2.01-1.05,2.8-1.85
		c0.79-0.8,1.41-1.74,1.85-2.8s0.67-2.25,0.67-3.54c0-1.29-0.22-2.47-0.67-3.54c-0.44-1.07-1.06-2-1.85-2.8
		c-0.79-0.8-1.72-1.42-2.8-1.85c-1.08-0.43-2.25-0.65-3.52-0.65c-1.27,0-2.44,0.21-3.5,0.65c-1.07,0.43-2,1.05-2.8,1.85
		c-0.8,0.8-1.43,1.74-1.87,2.8c-0.44,1.07-0.66,2.24-0.66,3.54c0,1.27,0.22,2.44,0.66,3.52c0.44,1.08,1.06,2.02,1.85,2.82
		c0.79,0.8,1.72,1.42,2.8,1.85C578.72,387.47,579.89,387.68,581.16,387.68z M608.29,391.42v-25.15h3.84l15.77,19.36H626v-19.36h4.63
		v25.15h-3.84l-15.77-19.36h1.9v19.36H608.29z M651.11,391.42v-21.2h-8.34v-3.95h21.34v3.95h-8.34v21.2H651.11z M687.68,391.78
		c-1.96,0-3.77-0.32-5.43-0.97c-1.65-0.65-3.09-1.55-4.31-2.71c-1.22-1.16-2.17-2.53-2.84-4.1c-0.67-1.57-1.01-3.29-1.01-5.16
		c0-1.87,0.34-3.59,1.01-5.15s1.62-2.93,2.84-4.1c1.22-1.16,2.66-2.07,4.31-2.71c1.65-0.65,3.45-0.97,5.39-0.97
		c1.96,0,3.77,0.32,5.41,0.97c1.64,0.65,3.07,1.55,4.29,2.71c1.22,1.16,2.17,2.53,2.84,4.1c0.67,1.57,1.01,3.29,1.01,5.15
		c0,1.87-0.34,3.59-1.01,5.17c-0.67,1.58-1.62,2.95-2.84,4.09c-1.22,1.15-2.65,2.05-4.29,2.7
		C691.41,391.45,689.62,391.78,687.68,391.78z M687.65,387.68c1.27,0,2.44-0.22,3.52-0.65c1.08-0.43,2.01-1.05,2.8-1.85
		c0.79-0.8,1.41-1.74,1.85-2.8c0.44-1.07,0.66-2.25,0.66-3.54c0-1.29-0.22-2.47-0.66-3.54c-0.44-1.07-1.06-2-1.85-2.8
		c-0.79-0.8-1.72-1.42-2.8-1.85c-1.08-0.43-2.25-0.65-3.52-0.65c-1.27,0-2.44,0.21-3.5,0.65c-1.07,0.43-2,1.05-2.8,1.85
		c-0.8,0.8-1.43,1.74-1.87,2.8c-0.44,1.07-0.66,2.24-0.66,3.54c0,1.27,0.22,2.44,0.66,3.52c0.44,1.08,1.06,2.02,1.85,2.82
		c0.79,0.8,1.72,1.42,2.8,1.85C685.2,387.47,686.38,387.68,687.65,387.68z M714.77,391.42v-25.15h4.67v21.2h13.15v3.95H714.77z
		 M756.23,391.78c-1.96,0-3.77-0.32-5.43-0.97c-1.65-0.65-3.09-1.55-4.31-2.71c-1.22-1.16-2.17-2.53-2.84-4.1
		c-0.67-1.57-1.01-3.29-1.01-5.16c0-1.87,0.34-3.59,1.01-5.15c0.67-1.57,1.62-2.93,2.84-4.1c1.22-1.16,2.66-2.07,4.31-2.71
		c1.65-0.65,3.45-0.97,5.39-0.97c1.96,0,3.77,0.32,5.41,0.97c1.64,0.65,3.07,1.55,4.29,2.71c1.22,1.16,2.17,2.53,2.84,4.1
		c0.67,1.57,1.01,3.29,1.01,5.15c0,1.87-0.34,3.59-1.01,5.17c-0.67,1.58-1.62,2.95-2.84,4.09c-1.22,1.15-2.65,2.05-4.29,2.7
		C759.96,391.45,758.17,391.78,756.23,391.78z M756.19,387.68c1.27,0,2.44-0.22,3.52-0.65c1.08-0.43,2.01-1.05,2.8-1.85
		c0.79-0.8,1.41-1.74,1.85-2.8c0.44-1.07,0.66-2.25,0.66-3.54c0-1.29-0.22-2.47-0.66-3.54c-0.44-1.07-1.06-2-1.85-2.8
		c-0.79-0.8-1.72-1.42-2.8-1.85c-1.08-0.43-2.25-0.65-3.52-0.65c-1.27,0-2.44,0.21-3.5,0.65c-1.07,0.43-2,1.05-2.8,1.85
		c-0.8,0.8-1.43,1.74-1.87,2.8c-0.44,1.07-0.67,2.24-0.67,3.54c0,1.27,0.22,2.44,0.67,3.52c0.44,1.08,1.06,2.02,1.85,2.82
		c0.79,0.8,1.72,1.42,2.8,1.85C753.75,387.47,754.92,387.68,756.19,387.68z M795.06,391.78c-1.96,0-3.77-0.32-5.41-0.95
		c-1.64-0.63-3.07-1.53-4.29-2.69c-1.22-1.16-2.17-2.53-2.84-4.11c-0.67-1.58-1.01-3.31-1.01-5.17c0-1.87,0.34-3.59,1.01-5.17
		c0.67-1.58,1.62-2.95,2.86-4.11c1.23-1.16,2.68-2.06,4.33-2.69c1.65-0.63,3.46-0.95,5.42-0.95c2.13,0,4.05,0.35,5.77,1.04
		c1.71,0.69,3.16,1.71,4.33,3.05l-2.95,2.87c-0.98-0.98-2.04-1.71-3.18-2.17c-1.14-0.47-2.39-0.7-3.75-0.7
		c-1.32,0-2.54,0.21-3.66,0.65c-1.13,0.43-2.1,1.04-2.91,1.83c-0.81,0.79-1.44,1.72-1.89,2.8c-0.44,1.08-0.67,2.26-0.67,3.56
		c0,1.27,0.22,2.44,0.67,3.52c0.44,1.08,1.07,2.02,1.89,2.82c0.81,0.8,1.77,1.42,2.87,1.85c1.1,0.43,2.32,0.65,3.66,0.65
		c1.25,0,2.45-0.2,3.61-0.59c1.16-0.39,2.27-1.06,3.32-1.99l2.66,3.48c-1.32,1.05-2.84,1.85-4.58,2.39
		C798.59,391.51,796.84,391.78,795.06,391.78z M804.91,388.58l-4.42-0.61v-9.41h4.42V388.58z M819.67,391.42v-25.15h4.67v25.15
		H819.67z M836.2,391.42l11.32-25.15h4.6l11.35,25.15h-4.89l-9.74-22.67h1.87l-9.7,22.67H836.2z M841.41,385.6l1.26-3.66h13.58
		l1.26,3.66H841.41z M893.82,391.42v-25.15h4.67v25.15H893.82z M913.9,391.42v-25.15h3.84l15.77,19.36h-1.9v-19.36h4.63v25.15h-3.84
		l-15.77-19.36h1.9v19.36H913.9z M956.73,391.42v-21.2h-8.34v-3.95h21.34v3.95h-8.34v21.2H956.73z M981.88,391.42v-25.15h18.36v3.92
		h-13.69v17.32h14.19v3.92H981.88z M986.19,380.57v-3.84h12.5v3.84H986.19z M1026.32,391.78c-1.96,0-3.77-0.32-5.41-0.95
		c-1.64-0.63-3.07-1.53-4.29-2.69c-1.22-1.16-2.17-2.53-2.84-4.11c-0.67-1.58-1.01-3.31-1.01-5.17c0-1.87,0.34-3.59,1.01-5.17
		c0.67-1.58,1.62-2.95,2.86-4.11c1.23-1.16,2.68-2.06,4.33-2.69c1.65-0.63,3.46-0.95,5.42-0.95c2.13,0,4.05,0.35,5.77,1.04
		c1.71,0.69,3.16,1.71,4.33,3.05l-2.95,2.87c-0.98-0.98-2.04-1.71-3.18-2.17c-1.14-0.47-2.39-0.7-3.75-0.7
		c-1.32,0-2.54,0.21-3.66,0.65c-1.13,0.43-2.1,1.04-2.91,1.83c-0.81,0.79-1.44,1.72-1.89,2.8c-0.44,1.08-0.67,2.26-0.67,3.56
		c0,1.27,0.22,2.44,0.67,3.52c0.44,1.08,1.07,2.02,1.89,2.82c0.81,0.8,1.77,1.42,2.87,1.85c1.1,0.43,2.32,0.65,3.66,0.65
		c1.25,0,2.45-0.2,3.61-0.59c1.16-0.39,2.27-1.06,3.32-1.99l2.66,3.48c-1.32,1.05-2.84,1.85-4.58,2.39
		C1029.84,391.51,1028.09,391.78,1026.32,391.78z M1036.16,388.58l-4.42-0.61v-9.41h4.42V388.58z M1050.93,391.42v-25.15h10.31
		c3.35,0,5.98,0.79,7.89,2.37c1.9,1.58,2.86,3.77,2.86,6.57c0,1.84-0.43,3.43-1.29,4.76c-0.86,1.33-2.09,2.35-3.68,3.05
		c-1.59,0.71-3.5,1.06-5.73,1.06h-7.76l2.08-2.12v9.45H1050.93z M1055.6,382.47l-2.08-2.23h7.54c2.06,0,3.61-0.44,4.65-1.33
		c1.04-0.89,1.56-2.12,1.56-3.7c0-1.6-0.52-2.84-1.56-3.7c-1.04-0.86-2.59-1.29-4.65-1.29h-7.54l2.08-2.3V382.47z M1067.38,391.42
		l-6.36-9.13h4.99l6.4,9.13H1067.38z M1082.25,391.42l11.32-25.15h4.6l11.35,25.15h-4.89l-9.74-22.67h1.87l-9.7,22.67H1082.25z
		 M1087.46,385.6l1.26-3.66h13.58l1.26,3.66H1087.46z M1121.34,391.42v-25.15h10.99c2.73,0,5.12,0.53,7.18,1.58s3.67,2.52,4.81,4.38
		c1.15,1.87,1.72,4.07,1.72,6.61c0,2.52-0.57,4.71-1.72,6.59c-1.15,1.88-2.75,3.35-4.81,4.4c-2.06,1.05-4.45,1.58-7.18,1.58H1121.34
		z M1126.01,387.47h6.11c1.87,0,3.5-0.36,4.89-1.08c1.39-0.72,2.46-1.72,3.21-3.02c0.76-1.29,1.13-2.8,1.13-4.53
		c0-1.75-0.38-3.26-1.13-4.54c-0.75-1.28-1.83-2.28-3.21-3c-1.39-0.72-3.02-1.08-4.89-1.08h-6.11V387.47z M1155.72,391.42
		l11.32-25.15h4.6l11.35,25.15h-4.89l-9.74-22.67h1.87l-9.7,22.67H1155.72z M1160.93,385.6l1.26-3.66h13.58l1.26,3.66H1160.93z"/>
</g>
<linearGradient id="SVGID_00000011719394621018864690000015710111489976271288_" gradientUnits="userSpaceOnUse" x1="433.3992" y1="348.4355" x2="1222.7181" y2="348.4355">
	<stop  offset="0.014" style="stop-color:#9B6C2B"/>
	<stop  offset="0.1965" style="stop-color:#A3702A"/>
	<stop  offset="0.4683" style="stop-color:#DFB455"/>
	<stop  offset="0.6173" style="stop-color:#F3E4A4"/>
	<stop  offset="0.7179" style="stop-color:#EAC675"/>
	<stop  offset="0.7933" style="stop-color:#CC9F49"/>
	<stop  offset="1" style="stop-color:#8C5D21"/>
</linearGradient>
<rect x="433.4" y="347" style="fill:url(#SVGID_00000011719394621018864690000015710111489976271288_);" width="789.32" height="2.88"/>
</svg>
