<?xml version="1.0" encoding="UTF-8"?>
<svg id="Camada_1" data-name="Camada 1" xmlns="http://www.w3.org/2000/svg" xmlns:xlink="http://www.w3.org/1999/xlink" viewBox="0 0 337 373.55">
  <defs>
    <style>
      .cls-1 {
        fill: url(#Gradiente_sem_nome_24-4);
      }

      .cls-1, .cls-2, .cls-3, .cls-4, .cls-5, .cls-6, .cls-7, .cls-8, .cls-9, .cls-10 {
        stroke-width: 0px;
      }

      .cls-2 {
        fill: url(#Gradiente_sem_nome_24-3);
      }

      .cls-3 {
        fill: url(#Gradiente_sem_nome_24);
      }

      .cls-4 {
        fill: url(#Gradiente_sem_nome_3-3);
      }

      .cls-5 {
        fill: url(#Gradiente_sem_nome_3-2);
      }

      .cls-6 {
        fill: url(#Gradiente_sem_nome_3-4);
      }

      .cls-7 {
        fill: url(#Gradiente_sem_nome_3-5);
      }

      .cls-8 {
        fill: url(#Gradiente_sem_nome_24-5);
      }

      .cls-9 {
        fill: url(#Gradiente_sem_nome_24-2);
      }

      .cls-10 {
        fill: url(#Gradiente_sem_nome_3);
      }
    </style>
    <linearGradient id="Gradiente_sem_nome_3" data-name="Gradiente sem nome 3" x1="252.43" y1="8.07" x2="252.49" y2="8.07" gradientUnits="userSpaceOnUse">
      <stop offset="0" stop-color="#7a501e"/>
      <stop offset=".35" stop-color="#a3702a"/>
      <stop offset=".59" stop-color="#c49543"/>
      <stop offset=".65" stop-color="#cc9f49"/>
      <stop offset=".8" stop-color="#8c5d21"/>
      <stop offset=".91" stop-color="#7a501e"/>
    </linearGradient>
    <linearGradient id="Gradiente_sem_nome_3-2" data-name="Gradiente sem nome 3" x1="118.9" y1="181.13" x2="337" y2="181.13" xlink:href="#Gradiente_sem_nome_3"/>
    <linearGradient id="Gradiente_sem_nome_3-3" data-name="Gradiente sem nome 3" x1="297.26" y1="49.75" x2="297.41" y2="49.75" xlink:href="#Gradiente_sem_nome_3"/>
    <linearGradient id="Gradiente_sem_nome_3-4" data-name="Gradiente sem nome 3" x1="252.45" y1="8" x2="252.63" y2="8" xlink:href="#Gradiente_sem_nome_3"/>
    <linearGradient id="Gradiente_sem_nome_3-5" data-name="Gradiente sem nome 3" x1=".84" y1="209.74" x2="209.02" y2="209.74" xlink:href="#Gradiente_sem_nome_3"/>
    <linearGradient id="Gradiente_sem_nome_24" data-name="Gradiente sem nome 24" x1="251.59" y1="6.99" x2="251.65" y2="6.99" gradientUnits="userSpaceOnUse">
      <stop offset=".01" stop-color="#9b6c2b"/>
      <stop offset=".2" stop-color="#a3702a"/>
      <stop offset=".47" stop-color="#dfb455"/>
      <stop offset=".62" stop-color="#f3e4a4"/>
      <stop offset=".72" stop-color="#eac675"/>
      <stop offset=".79" stop-color="#cc9f49"/>
      <stop offset="1" stop-color="#8c5d21"/>
    </linearGradient>
    <linearGradient id="Gradiente_sem_nome_24-2" data-name="Gradiente sem nome 24" x1="118.06" y1="180.05" x2="336.16" y2="180.05" xlink:href="#Gradiente_sem_nome_24"/>
    <linearGradient id="Gradiente_sem_nome_24-3" data-name="Gradiente sem nome 24" x1="296.42" y1="48.67" x2="296.57" y2="48.67" xlink:href="#Gradiente_sem_nome_24"/>
    <linearGradient id="Gradiente_sem_nome_24-4" data-name="Gradiente sem nome 24" x1="251.61" y1="6.92" x2="251.79" y2="6.92" xlink:href="#Gradiente_sem_nome_24"/>
    <linearGradient id="Gradiente_sem_nome_24-5" data-name="Gradiente sem nome 24" x1="0" y1="208.66" x2="208.18" y2="208.66" xlink:href="#Gradiente_sem_nome_24"/>
  </defs>
  <g>
    <path class="cls-10" d="M252.45,8.03s-.02.05-.03.08c.02-.01.05-.03.07-.04l-.04-.04Z"/>
    <path class="cls-5" d="M318.54,112.66c1.85-2.36,4.51-3.39,7.7-6.3-3.52,1.58-7.69,3.15-10.96,4.62.35-5.99,4.03-9.21,7.5-13.03-5.75,1.63-7.88,6.45-10.02,11.29-.57,1.29-.52,2.98-2.5,3.34-3.98.73-7.91,2.09-11.91,2.32-16.33.94-32.1-1.89-47.31-7.87-.58-.23-6.13-2.34-9.22-4.45,34.36.86,57.53-9.82,57.53-9.82h-.01c3.74-1.56,7.21-3.78,10.59-6.09,4.47-3.05,7.85-6.82,12.93-8.49,3.37-1.1,6.59-2.62,9.44-4.72,2.51-1.85,4.64-4.03,4.7-6.13,0,0-7.98,7.15-13.34,7.26.33-1.73,3.88-7.36,3.79-7.46-2.14.79-5.25,6.41-7.81,6.9-1.53-4.99.8-11.2,4.49-14.99,0,0-7,4.46-7.7,11.45-.5,4.66-.04,7.46-.04,7.46,0,0-5.56,4.94-9.6,7.37-.99.6-1.96,1.23-2.93,1.86-2.94,1.9-6.11,3.34-9.27,4.82-26.95,8.07-46.03,8.17-54.49,7.61,6.44-.89,16.6-4.95,18.33-5.73.25-.11.52-.24.82-.38,12.21-5.67,22.73-13.69,32.09-23.28,1.57-1.61,2.99-2.7,5.5-2.72,2.81-.03,9.19-3.74,10.64-6.67-3.04,1.44-7.53,4.44-9.67,3.28-.1-1.3,3.95-7.83,3.95-7.83,0,0-5.94,5.53-7.59,5.14-1.27-4.5,1.51-8.84,3.08-11.58-3.98,3.18-5.61,7.52-5.18,12.42.22,2.54-.6,3.94-2.33,5.47-10.51,9.32-21.55,17.85-34.32,23.96-.43.21-11.29,4.13-16.92,6.18,4.91-4.18,11.15-10.1,11.7-10.58,2.12-1.88,4.43-3.58,6.39-5.61,11.46-11.89,21.2-25.04,28.13-40.1,1.07-2.32,2.51-3.51,4.83-4.36,3.65-1.33,9.25-4.57,10.34-9.1-2.49,2.45-6.53,5.65-10.55,5.4.93-3.62,3.07-10.27,3.07-10.27-1.75,1.25-3.88,7.26-6.5,8.95-2.31-3.13-1.93-8.69-2.22-12.79-2.14,4.42-1.73,10.57,0,14.19.8,1.68.79,2.92-.17,4.52-6.52,10.83-13.57,21.28-21.51,31.13-4.42,5.48-9.04,10.75-13.99,15.75-.5.5-9.04,7.8-13.29,12.71.64-3.51,1.52-8.82,3.11-14.61,4.11-11.71,8.12-20.65,14.24-31.45,1.6-2.82,3.45-5.23,7.57-5.77,4.74-.63,8.75-3.63,10.9-8.32,0,0-6.6,4.99-11.29,4.59,1.29-2.98,3.23-5.33,4.44-8.28-2.31,2.49-5.82,5.98-6.72,5.71-.96-.29-1.12-1.37-1.3-2.31-.53-2.76.9-7.94.85-8-2.67,2.88-3.79,6.22-2.51,10.08.87,2.63.53,4.78-1.32,7.06-3.85,4.75-6.68,10.2-9.5,15.61-4.44,8.54-7.29,17.67-9.52,27.01-.5,2.28-.81,4.25-1,5.94-.38-7.83-1.9-22.88-2.07-27.19-.54-13.45,1.82-25.89,4.06-39.11.78-4.61,2.3-8.58,7.67-10.64,4.37-1.67,8.42-4.86,10.06-9.9-4.61,2.45-8.14,6.88-13.88,7.82-.12-3.9,2.4-6.92,2.51-11.51-2.53,4.99-4.59,9.06-6.78,13.39-3.24-5.42-3.49-11.05-3.58-16.72-2.31,6.2-1.8,12.23,1.1,18.03.93,1.85,1.02,3.46.42,5.39-2.1,6.75-3.04,14.02-3.75,21.15-1.26,12.53-1.36,24.39.54,36.75.1.68.55,6.24,1.25,10.91-2.88-4.84-6.05-9.62-6.32-10.08-9.72-16.6-14.74-34.51-15.45-53.7-.09-2.34.56-4.01,2.32-5.69,3.32-3.17,5.6-7.07,6.81-12.39-3.39,2.87-4.74,6.54-8.6,8.92v-10.68c-1.97,2.23-2.81,4.6-3.01,7.21-.07.9-.18,2.14-1.28,2.23-.58.05-1.34-.79-1.84-1.38-2.26-2.68-3.66-5.9-5.58-9.83-.4,6.07,1.53,10.45,5.02,13.93,2.28,2.27,2.84,4.59,2.71,7.6-.87,20.6,5.11,39.27,15.89,56.65,1.08,1.74,7.91,11.75,11.61,15.89-3.27,2.4-6.76,4.51-9.88,7.09-19.4,16-34.68,35.52-47.52,56.96-25.23,42.14-39.25,88.31-48.3,136.22-.55,2.9.28,6.92-1.99,8.5-5.67,3.94-5.37,9.63-5.95,14.12-.07,6.43.65,11.72,1.66,16.89,1.06,5.43,1.67,11.03,3.92,16.18.61,1.4,1.2,3.48,3.12,3.19,1.71-.25,2.23-2.21,2.78-3.75.18-.5.14-1.08.26-1.61,1.08-4.91.99-10.05,2.16-14.86,1.63-6.7,2.21-13.36,1.9-20.16-.15-3.33-.87-6.54-3.65-8.76-1.51-1.21-1.08-2.48-.79-4.01,3.78-20.09,8.9-39.82,15.08-59.31,10.69-33.76,24.01-66.26,44.63-95.36,6.69-9.44,14.02-18.36,22.01-26.74,7.24-7.6,15.53-14.04,23.34-20.99.54-.48,1.44-1.4,1.44-1.4,4.53,2.81,12.24,5.36,13.07,5.73,5.84,2.64,11.73,5.09,18.07,6.36,13.39,2.67,26.77,4.48,40.05-.31,3.6-1.3,6.99-1.01,10.66-.54,6.2.79,12.44.67,17.16-4.5-5.71,2.24-10.96,3.65-17.23,1.72Z"/>
    <path class="cls-4" d="M297.36,49.66c-.03.06-.07.12-.1.17.05-.04.1-.08.15-.12l-.05-.05Z"/>
    <polygon class="cls-6" points="252.45 8.03 252.49 8.07 252.63 7.93 252.45 8.03"/>
    <path class="cls-7" d="M28.04,301.56c-.51,13.1,1.21,25.91,4.31,38.54,4.47,17.33,12.28,29.51,15.03,33.45-12.15-16.78-17.44-28.41-19.23-32.87,0,0,0-.01,0-.02,0,0,0,0,0-.01-.53-1.31-.75-2-.75-2h.03c-2.45-7.06-3.85-14.25-4.98-21.65-1.79-11.76-1.47-23.61-.7-35.28.78-11.89,3.82-23.59,7.92-34.96,1.91-5.28,3.89-10.61,5.23-16.19.93-3.88,2.68-7.93,3.5-11.97,2.35-11.54,5.28-23.09,3.87-35.04-1.32-11.11-6.1-20.84-12.15-30.13-7.5-11.51-13.8-23.69-19.36-36.29-2.86-6.47-5.96-12.8-8.13-19.56h0s-.04-.12-.11-.35c-.01-.03-.02-.06-.03-.1-.02-.05-.03-.1-.04-.15-1.36-4.71-8.98-36.28,27.27-49.23,0,0,18.54-5.92,51.65,3.59,16.65,4.78,29.5,11.67,30.53,12.18,0,0-67.45-25.21-92.35-2.49,0,0-14.32,10.17-6.85,36.17.53,1.56,1.13,3.1,1.82,4.62,8.37,18.54,17.98,36.4,29.23,53.35,5.48,8.26,7.95,17.47,8.64,27.16,1.15,16.17-1.78,31.83-6.29,47.31-3.92,13.47-10.59,25.95-13.68,39.73-2.39,10.63-3.95,21.32-4.37,32.18ZM85.37,93.1c-4.1-.12-13.7-4.36-18.52-6.69,3.07,3.18,12.5,12.28,30.36,12.14,10.53-.08,20.88-2.91,30.05-8.1.69-.39,1.4-.8,2.12-1.22,12.53-7.34,25.49-13.7,39.34-18.17,24.11-7.42,33.97-.99,37.23,9.14,1,3.1,1.59,6.29,2.04,10.14,1.95-3.52,1.55-19.44-4.52-24.28-6.59-6.47-20.08-12.49-51.68.29-14.32,5.01-26.53,13.98-39.68,21.2-8.14,4.47-15.52,6.41-26.73,5.55ZM85.11,230.11h0c-9.14,20.61-17.18,41.63-22.87,63.48-3.91,15-7.33,27.27-7.46,51.31-.07.96-.03,1.59.12,2.2-.08,7.22.18,14.78,1.16,21.18,0,0,.1-19.3,3.43-41.02,2.84-25.24,12.44-48.33,22.56-71.28,3.49-7.91,7.6-15.5,11.47-23.21h0s7.16-13.91,14.63-28.02l-8.82-5.19s-7.37,13.28-14.22,30.55Z"/>
  </g>
  <g>
    <path class="cls-3" d="M251.61,6.95s-.02.05-.03.08c.02-.01.05-.03.07-.04l-.04-.04Z"/>
    <path class="cls-9" d="M317.7,111.58c1.85-2.36,4.51-3.39,7.7-6.3-3.52,1.58-7.69,3.15-10.96,4.62.35-5.99,4.03-9.21,7.5-13.03-5.75,1.63-7.88,6.45-10.02,11.29-.57,1.29-.52,2.98-2.5,3.34-3.98.73-7.91,2.09-11.91,2.32-16.33.94-32.1-1.89-47.31-7.87-.58-.23-6.13-2.34-9.22-4.45,34.36.86,57.53-9.82,57.53-9.82h-.01c3.74-1.56,7.21-3.78,10.59-6.09,4.47-3.05,7.85-6.82,12.93-8.49,3.37-1.1,6.59-2.62,9.44-4.72,2.51-1.85,4.64-4.03,4.7-6.13,0,0-7.98,7.15-13.34,7.26.33-1.73,3.88-7.36,3.79-7.46-2.14.79-5.25,6.41-7.81,6.9-1.53-4.99.8-11.2,4.49-14.99,0,0-7,4.46-7.7,11.45-.5,4.66-.04,7.46-.04,7.46,0,0-5.56,4.94-9.6,7.37-.99.6-1.96,1.23-2.93,1.86-2.94,1.9-6.11,3.34-9.27,4.82-26.95,8.07-46.03,8.17-54.49,7.61,6.44-.89,16.6-4.95,18.33-5.73.25-.11.52-.24.82-.38,12.21-5.67,22.73-13.69,32.09-23.28,1.57-1.61,2.99-2.7,5.5-2.72,2.81-.03,9.19-3.74,10.64-6.67-3.04,1.44-7.53,4.44-9.67,3.28-.1-1.3,3.95-7.83,3.95-7.83,0,0-5.94,5.53-7.59,5.14-1.27-4.5,1.51-8.84,3.08-11.58-3.98,3.18-5.61,7.52-5.18,12.42.22,2.54-.6,3.94-2.33,5.47-10.51,9.32-21.55,17.85-34.32,23.96-.43.21-11.29,4.13-16.92,6.18,4.91-4.18,11.15-10.1,11.7-10.58,2.12-1.88,4.43-3.58,6.39-5.61,11.46-11.89,21.2-25.04,28.13-40.1,1.07-2.32,2.51-3.51,4.83-4.36,3.65-1.33,9.25-4.57,10.34-9.1-2.49,2.45-6.53,5.65-10.55,5.4.93-3.62,3.07-10.27,3.07-10.27-1.75,1.25-3.88,7.26-6.5,8.95-2.31-3.13-1.93-8.69-2.22-12.79-2.14,4.42-1.73,10.57,0,14.19.8,1.68.79,2.92-.17,4.52-6.52,10.83-13.57,21.28-21.51,31.13-4.42,5.48-9.04,10.75-13.99,15.75-.5.5-9.04,7.8-13.29,12.71.64-3.51,1.52-8.82,3.11-14.61,4.11-11.71,8.12-20.65,14.24-31.45,1.6-2.82,3.45-5.23,7.57-5.77,4.74-.63,8.75-3.63,10.9-8.32,0,0-6.6,4.99-11.29,4.59,1.29-2.98,3.23-5.33,4.44-8.28-2.31,2.49-5.82,5.98-6.72,5.71-.96-.29-1.12-1.37-1.3-2.31-.53-2.76.9-7.94.85-8-2.67,2.88-3.79,6.22-2.51,10.08.87,2.63.53,4.78-1.32,7.06-3.85,4.75-6.68,10.2-9.5,15.61-4.44,8.54-7.29,17.67-9.52,27.01-.5,2.28-.81,4.25-1,5.94-.38-7.83-1.9-22.88-2.07-27.19-.54-13.45,1.82-25.89,4.06-39.11.78-4.61,2.3-8.58,7.67-10.64,4.37-1.67,8.42-4.86,10.06-9.9-4.61,2.45-8.14,6.88-13.88,7.82-.12-3.9,2.4-6.92,2.51-11.51-2.53,4.99-4.59,9.06-6.78,13.39-3.24-5.42-3.49-11.05-3.58-16.72-2.31,6.2-1.8,12.23,1.1,18.03.93,1.85,1.02,3.46.42,5.39-2.1,6.75-3.04,14.02-3.75,21.15-1.26,12.53-1.36,24.39.54,36.75.1.68.55,6.24,1.25,10.91-2.88-4.84-6.05-9.62-6.32-10.08-9.72-16.6-14.74-34.51-15.45-53.7-.09-2.34.56-4.01,2.32-5.69,3.32-3.17,5.6-7.07,6.81-12.39-3.39,2.87-4.74,6.54-8.6,8.92v-10.68c-1.97,2.23-2.81,4.6-3.01,7.21-.07.9-.18,2.14-1.28,2.23-.58.05-1.34-.79-1.84-1.38-2.26-2.68-3.66-5.9-5.58-9.83-.4,6.07,1.53,10.45,5.02,13.93,2.28,2.27,2.84,4.59,2.71,7.6-.87,20.6,5.11,39.27,15.89,56.65,1.08,1.74,7.91,11.75,11.61,15.89-3.27,2.4-6.76,4.51-9.88,7.09-19.4,16-34.68,35.52-47.52,56.96-25.23,42.14-39.25,88.31-48.3,136.22-.55,2.9.28,6.92-1.99,8.5-5.67,3.94-5.37,9.63-5.95,14.12-.07,6.43.65,11.72,1.66,16.89,1.06,5.43,1.67,11.03,3.92,16.18.61,1.4,1.2,3.48,3.12,3.19,1.71-.25,2.23-2.21,2.78-3.75.18-.5.14-1.08.26-1.61,1.08-4.91.99-10.05,2.16-14.86,1.63-6.7,2.21-13.36,1.9-20.16-.15-3.33-.87-6.54-3.65-8.76-1.51-1.21-1.08-2.48-.79-4.01,3.78-20.09,8.9-39.82,15.08-59.31,10.69-33.76,24.01-66.26,44.63-95.36,6.69-9.44,14.02-18.36,22.01-26.74,7.24-7.6,15.53-14.04,23.34-20.99.54-.48,1.44-1.4,1.44-1.4,4.53,2.81,12.24,5.36,13.07,5.73,5.84,2.64,11.73,5.09,18.07,6.36,13.39,2.67,26.77,4.48,40.05-.31,3.6-1.3,6.99-1.01,10.66-.54,6.2.79,12.44.67,17.16-4.5-5.71,2.24-10.96,3.65-17.23,1.72Z"/>
    <path class="cls-2" d="M296.52,48.58c-.03.06-.07.12-.1.17.05-.04.1-.08.15-.12l-.05-.05Z"/>
    <polygon class="cls-1" points="251.61 6.95 251.65 6.99 251.79 6.85 251.61 6.95"/>
    <path class="cls-8" d="M27.2,300.48c-.51,13.1,1.21,25.91,4.31,38.54,4.47,17.33,12.28,29.51,15.03,33.45-12.15-16.78-17.44-28.41-19.23-32.87,0,0,0-.01,0-.02,0,0,0,0,0-.01-.53-1.31-.75-2-.75-2h.03c-2.45-7.06-3.85-14.25-4.98-21.65-1.79-11.76-1.47-23.61-.7-35.28.78-11.89,3.82-23.59,7.92-34.96,1.91-5.28,3.89-10.61,5.23-16.19.93-3.88,2.68-7.93,3.5-11.97,2.35-11.54,5.28-23.09,3.87-35.04-1.32-11.11-6.1-20.84-12.15-30.13-7.5-11.51-13.8-23.69-19.36-36.29-2.86-6.47-5.96-12.8-8.13-19.56h0s-.04-.12-.11-.35c-.01-.03-.02-.06-.03-.1-.02-.05-.03-.1-.04-.15-1.36-4.71-8.98-36.28,27.27-49.23,0,0,18.54-5.92,51.65,3.59,16.65,4.78,29.5,11.67,30.53,12.18,0,0-67.45-25.21-92.35-2.49,0,0-14.32,10.17-6.85,36.17.53,1.56,1.13,3.1,1.82,4.62,8.37,18.54,17.98,36.4,29.23,53.35,5.48,8.26,7.95,17.47,8.64,27.16,1.15,16.17-1.78,31.83-6.29,47.31-3.92,13.47-10.59,25.95-13.68,39.73-2.39,10.63-3.95,21.32-4.37,32.18ZM84.53,92.02c-4.1-.12-13.7-4.36-18.52-6.69,3.07,3.18,12.5,12.28,30.36,12.14,10.53-.08,20.88-2.91,30.05-8.1.69-.39,1.4-.8,2.12-1.22,12.53-7.34,25.49-13.7,39.34-18.17,24.11-7.42,33.97-.99,37.23,9.14,1,3.1,1.59,6.29,2.04,10.14,1.95-3.52,1.55-19.44-4.52-24.28-6.59-6.47-20.08-12.49-51.68.29-14.32,5.01-26.53,13.98-39.68,21.2-8.14,4.47-15.52,6.41-26.73,5.55ZM84.27,229.03h0c-9.14,20.61-17.18,41.63-22.87,63.48-3.91,15-7.33,27.27-7.46,51.31-.07.96-.03,1.59.12,2.2-.08,7.22.18,14.78,1.16,21.18,0,0,.1-19.3,3.43-41.02,2.84-25.24,12.44-48.33,22.56-71.28,3.49-7.91,7.6-15.5,11.47-23.21h0s7.16-13.91,14.63-28.02l-8.82-5.19s-7.37,13.28-14.22,30.55Z"/>
  </g>
</svg>