<svg width="24" height="24" viewBox="0 0 24 24" fill="none" xmlns="http://www.w3.org/2000/svg">
<path d="M18.3458 4.27108C17.5729 4.27108 16.9221 4.88125 16.9221 5.69478C16.9221 6.46767 17.5322 7.11853 18.3458 7.11853C19.1187 7.11853 19.7695 6.50835 19.7695 5.69478C19.7695 4.92193 19.1187 4.27108 18.3458 4.27108Z" fill="white"/>
<path d="M12.0816 6.10168C8.82738 6.10168 6.18333 8.74574 6.18333 12C6.18333 15.2542 8.82738 17.8983 12.0816 17.8983C15.3357 17.8983 17.9798 15.2542 17.9798 12C17.9798 8.74574 15.3357 6.10168 12.0816 6.10168ZM12.0816 15.783C10.007 15.783 8.29857 14.0746 8.29857 12C8.29857 9.92542 10.007 8.21692 12.0816 8.21692C14.1561 8.21692 15.8645 9.92542 15.8645 12C15.8645 14.0746 14.1561 15.783 12.0816 15.783Z" fill="white"/>
<path d="M16.8001 24H7.20027C3.21388 24 0.000377248 20.7458 0.000377248 16.8V7.2C-0.0403001 3.25424 3.21388 0 7.20027 0H16.8001C20.7458 0 24 3.25424 24 7.2V16.8C24 20.7864 20.7458 24 16.8001 24ZM7.20027 2.27796C4.4749 2.27796 2.23763 4.47459 2.23763 7.2V16.8C2.23763 19.5254 4.4749 21.7627 7.20027 21.7627H16.8001C19.5255 21.7627 21.7627 19.5254 21.7627 16.8V7.2C21.722 4.47459 19.5255 2.27796 16.8001 2.27796H7.20027Z" fill="white"/>
</svg>
