<svg width="21" height="24" viewBox="0 0 21 24" fill="none" xmlns="http://www.w3.org/2000/svg">
<path d="M16.341 11.1235C16.2359 11.074 16.1291 11.0263 16.0209 10.9806C15.8325 7.56728 13.9356 5.61312 10.7504 5.59312C10.736 5.59304 10.7217 5.59304 10.7072 5.59304C8.80209 5.59304 7.21762 6.39261 6.24238 7.84759L7.99412 9.0291C8.72266 7.94229 9.86602 7.7106 10.7081 7.7106C10.7178 7.7106 10.7276 7.7106 10.7372 7.71069C11.7859 7.71726 12.5773 8.01708 13.0895 8.60175C13.4623 9.02741 13.7116 9.61563 13.835 10.358C12.9052 10.2026 11.8996 10.1548 10.8246 10.2154C7.79627 10.3869 5.84944 12.1235 5.98019 14.5365C6.04654 15.7605 6.66671 16.8135 7.72638 17.5014C8.62233 18.0829 9.77624 18.3673 10.9755 18.3029C12.5593 18.2175 13.8017 17.6234 14.6685 16.537C15.3268 15.712 15.7431 14.6429 15.927 13.2957C16.6817 13.7436 17.2411 14.333 17.55 15.0415C18.0754 16.2459 18.106 18.225 16.4636 19.8385C15.0246 21.252 13.2948 21.8635 10.6807 21.8824C7.78095 21.8613 5.58789 20.9469 4.16203 19.1646C2.82682 17.4958 2.13678 15.0852 2.11103 12C2.13678 8.91473 2.82682 6.5042 4.16203 4.83534C5.58789 3.05311 7.78091 2.13875 10.6807 2.11756C13.6015 2.13891 15.8328 3.05767 17.3132 4.8485C18.0391 5.7267 18.5864 6.8311 18.9472 8.11879L21 7.58028C20.5627 5.99528 19.8745 4.62946 18.9381 3.49675C17.0401 1.20084 14.2643 0.0243935 10.6878 0H10.6735C7.10428 0.0243088 4.35959 1.20522 2.51571 3.50991C0.874903 5.5608 0.0285282 8.41446 8.89913e-05 11.9916L0 12L8.89913e-05 12.0084C0.0285282 15.5855 0.874903 18.4393 2.51571 20.4901C4.35959 22.7948 7.10428 23.9757 10.6735 24H10.6878C13.8611 23.9784 16.0978 23.1615 17.9405 21.3514C20.3512 18.9833 20.2787 16.0149 19.4841 14.1926C18.914 12.8859 17.8272 11.8245 16.341 11.1235ZM10.8621 16.1884C9.53489 16.2619 8.15601 15.6761 8.08802 14.4215C8.03763 13.4913 8.76133 12.4533 10.9436 12.3296C11.1935 12.3154 11.4387 12.3085 11.6796 12.3085C12.4723 12.3085 13.2139 12.3842 13.888 12.5291C13.6366 15.6169 12.1616 16.1183 10.8621 16.1884Z" fill="white"/>
</svg>
