<svg width="24" height="24" viewBox="0 0 24 24" fill="none" xmlns="http://www.w3.org/2000/svg">
<path d="M0 24L1.73634 17.5666C0.733121 15.7946 0.231511 13.8298 0.231511 11.8652C0.231511 5.3162 5.55628 0 12.1158 0C18.6753 0 24 5.3162 24 11.8652C24 18.4141 18.6753 23.7304 12.1158 23.7304C10.1479 23.7304 8.21866 23.2296 6.48232 22.305L0 24ZM6.79101 19.8395L7.21545 20.0706C8.72027 20.9566 10.418 21.4189 12.1158 21.4189C17.4405 21.4189 21.7235 17.1043 21.7235 11.8266C21.7235 6.54895 17.402 2.23435 12.1158 2.23435C6.79101 2.23435 2.46946 6.54894 2.46946 11.8652C2.46946 13.5986 2.97106 15.3322 3.85852 16.8346L4.09004 17.2584L3.16399 20.8026L6.79101 19.8395Z" fill="white"/>
<path fill-rule="evenodd" clip-rule="evenodd" d="M16.5146 13.4831C16.013 13.1749 15.3957 12.8668 14.8169 13.098C14.3925 13.2905 14.0837 13.9839 13.8137 14.3306C13.6593 14.5233 13.505 14.5233 13.2734 14.4463C11.6142 13.7913 10.3409 12.6741 9.41488 11.1718C9.26054 10.9406 9.29912 10.748 9.49204 10.5169C9.76215 10.2087 10.1094 9.82347 10.1866 9.39971C10.2637 8.97597 10.0708 8.43664 9.8779 8.0514C9.64639 7.5506 9.3763 6.85718 8.87469 6.549C8.41167 6.27933 7.7943 6.43343 7.40845 6.78014C6.71391 7.35798 6.36665 8.24402 6.36665 9.13005C6.36665 9.39971 6.40523 9.63086 6.44382 9.86199C6.59815 10.4399 6.86825 11.0177 7.17693 11.5185C7.40845 11.9037 7.63995 12.2889 7.94864 12.6741C8.8361 13.8684 9.95508 14.9085 11.2284 15.7175C11.8843 16.1027 12.5404 16.4495 13.2734 16.6805C14.0837 16.9503 14.7782 17.2199 15.6271 17.0658C16.5146 16.9117 17.4021 16.3338 17.7879 15.4863C17.9037 15.2167 17.9423 14.9471 17.9037 14.6773C17.7107 14.0994 16.9777 13.7528 16.5146 13.4831Z" fill="white"/>
</svg>
